<svg viewBox="0 0 344 375" xmlns="http://www.w3.org/2000/svg" fill="currentColor"><path d="M341.8 341.6L210.6 24.4C203.2 8 192.2 0 177.7 0h-11.6c-14.5 0-25.5 8-32.9 24.4L76.1 162.6H32.9c-12.9.1-23.4 10.5-23.5 23.5v.3c.1 12.9 10.6 23.4 23.5 23.5h23.2L1.6 341.6c-1 2.9-1.6 5.9-1.6 9 0 7.4 2.3 13.2 6.4 17.7 4.1 4.5 10 6.7 17.4 6.7 4.9-.1 9.6-1.6 13.5-4.5 4.2-2.9 7.1-7.1 9.4-11.9l60-148.8h41.6c12.9-.1 23.4-10.5 23.5-23.5v-.6c-.1-12.9-10.6-23.4-23.5-23.5h-22.2l45.8-114.1 124.8 310.4c2.3 4.8 5.2 9 9.4 11.9 3.9 2.9 8.7 4.4 13.5 4.5 7.4 0 13.2-2.2 17.4-6.7 4.2-4.5 6.4-10.3 6.4-17.7.1-3-.4-6.1-1.6-8.9z" fill="currentColor" fillRule="nonzero"/></svg>