<svg viewBox="0 0 24 21" xmlns="http://www.w3.org/2000/svg" fill="currentColor"><g fillRule="evenodd"><path d="M12 20.34c-6.615 0-12-1.98-12-4.395 0-1.455 2.1-2.865 5.475-3.675 1.845.555 4.095.855 6.525.855 2.43 0 4.68-.3 6.525-.855C21.9 13.065 24 14.475 24 15.945c0 2.415-5.385 4.395-12 4.395zm0-14.865c-4.11 0-7.575-1.26-7.575-2.745S7.89 0 12 0s7.575 1.26 7.575 2.745S16.11 5.475 12 5.475z"/><path d="M12 12.315c-5.4 0-9.96-1.665-9.96-3.63 0-1.26 1.845-2.445 4.83-3.105 1.425.465 3.15.69 5.13.69 1.965 0 3.69-.225 5.13-.69 2.985.66 4.83 1.86 4.83 3.105 0 1.965-4.56 3.63-9.96 3.63z"/></g></svg>