<svg viewBox="0 0 503 512" fill="none" xmlns="http://www.w3.org/2000/svg"><path fillRule="evenodd" clip-rule="evenodd" d="M240.246.922c-2.644.214-6.561.61-8.703.877-2.14.267-5.438.49-7.328.495-1.889.004-4.377.294-5.529.644-1.15.349-3.727.777-5.724.95-1.998.174-4.663.593-5.924.932-1.26.338-3.527.826-5.039 1.084-5.7.971-9.201 1.752-10.164 2.268-.549.293-1.474.533-2.058.533-.583-.001-2.553.464-4.378 1.03l-3.318 1.031-.003 60.861c-.002 52.226.089 60.786.64 60.328.787-.654 10.543-5.44 14.015-6.875a162.991 162.991 0 003.893-1.667c.756-.342 1.992-.765 2.747-.937.757-.172 1.782-.592 2.279-.931.496-.34 1.486-.619 2.199-.619.712 0 1.858-.292 2.547-.649.688-.355 2.07-.782 3.069-.945.998-.165 2.537-.576 3.419-.914 2.098-.803 8.498-2.07 12.825-2.541 1.891-.205 4.57-.647 5.955-.983 4.095-.993 28.098-.85 32.383.191 1.813.441 4.312.802 5.552.802 1.242 0 3.061.283 4.042.63.982.346 2.914.777 4.294.957 2.396.313 3.57.616 9.839 2.543 1.512.465 3.419.979 4.237 1.142.819.164 1.489.487 1.489.718 0 .234.472.423 1.048.423.576 0 1.857.412 2.846.916.987.503 2.011.923 2.271.931.262.009 1.301.414 2.308.9 1.009.488 2.168.892 2.579.902.409.009 1.001.324 1.315.703.313.377.767.687 1.007.687.374 0 3.15 1.338 10.687 5.155.875.444 1.588 1.01 1.588 1.26 0 .251.291.455.646.455.526 0 5.496 2.983 7.396 4.439.266.204.802.576 1.192.828 2.862 1.853 4.561 3.068 5.563 3.979.642.583 1.71 1.459 2.374 1.947a42.796 42.796 0 012.212 1.755c7.725 6.693 11.131 10.058 17.51 17.303 4.743 5.387 13.908 18.249 13.938 19.561.007.315.176.572.375.572s.691.67 1.092 1.489c1.252 2.552 4.463 8.673 5.347 10.192.294.503.662 1.224.82 1.603.157.378.795 1.924 1.417 3.436.621 1.51 1.419 3.295 1.772 3.963.353.669.641 1.545.641 1.949 0 .402.413 1.502.916 2.442.504.94.916 2.129.916 2.644 0 .515.283 1.342.63 1.839.346.496.782 1.832.967 2.965.187 1.134.528 2.295.76 2.583.23.287.645 1.833.921 3.434.276 1.603.683 3.144.905 3.424.222.278.606 2.098.852 4.039.246 1.943.594 3.769.773 4.059.18.29.579 3.006.886 6.037.309 3.03.807 7.777 1.104 10.547.597 5.543.373 17.599-.429 23.131a282.534 282.534 0 00-.939 7.329c-.242 2.142-.642 4.718-.889 5.726a114.187 114.187 0 00-.902 4.123c-.742 3.773-1.457 6.788-1.954 8.245-.257.755-.746 2.403-1.086 3.663-.942 3.489-2.058 6.737-2.781 8.087-.357.668-.65 1.546-.65 1.948 0 .403-.412 1.502-.916 2.442-.505.941-.916 2.048-.916 2.461 0 .414-.31 1.01-.688 1.323-.377.314-.687.864-.687 1.225 0 .559-.917 2.57-2.369 5.187-.209.379-.586 1.204-.838 1.832-.25.63-.66 1.455-.907 1.833-.249.377-.764 1.306-1.145 2.061a32.592 32.592 0 01-1.605 2.748c-.502.757-1.045 1.684-1.208 2.062-.326.757-4.358 6.963-4.761 7.329-.139.125-1.034 1.419-1.988 2.876-.953 1.455-2.1 3.001-2.55 3.434-.448.434-1 1.128-1.226 1.543-1.549 2.842-17.385 18.991-22.046 22.483-1.436 1.075-2.964 2.264-3.395 2.642-1.109.972-1.719 1.42-4.056 2.976-1.133.755-2.226 1.631-2.428 1.947-.201.315-.564.574-.806.574-.242 0-1.479.731-2.75 1.624-1.271.894-2.762 1.824-3.316 2.068-.553.244-1.624.854-2.38 1.354a32.72 32.72 0 01-2.748 1.603c-.755.381-1.684.875-2.061 1.095-.378.222-1.203.629-1.832.906-.63.278-1.455.681-1.833.898-.646.371-2.725 1.338-6.413 2.985-3.524 1.574-6.097 2.583-6.592 2.583-.286 0-1.29.412-2.23.916-.94.503-2.132.915-2.65.915-.517 0-1.497.286-2.177.635-.68.35-2.418.879-3.863 1.176-1.443.297-2.745.734-2.89.968-.145.235-1.082.427-2.083.427-1.001 0-2.586.322-3.523.714-.936.393-3.042.831-4.681.973-1.637.142-4.11.569-5.495.946-1.897.516-6.141.738-17.178.899-13.942.201-17.504.025-24.047-1.192a284.537 284.537 0 00-5.267-.919c-4.032-.659-7.599-1.421-9.161-1.956-.755-.258-2.394-.674-3.639-.921-1.246-.248-2.684-.743-3.195-1.1-.51-.357-1.325-.65-1.812-.65-.981 0-11.255-3.982-11.944-4.629-.238-.225-.694-.409-1.012-.409-.607 0-7.875-3.495-10.793-5.192a198.23 198.23 0 00-4.123-2.302c-1.329-.721-2.741-1.597-3.139-1.947-.397-.35-.896-.636-1.108-.636-.214 0-.765-.343-1.228-.761a11.79 11.79 0 00-1.723-1.26c-1.781-1.004-5.787-3.87-7.036-5.03-.705-.657-1.397-1.194-1.536-1.194-1.469 0-20.072-18.146-22.539-21.986-.406-.63-.973-1.351-1.262-1.603-1.105-.965-8.877-11.939-8.877-12.535 0-.225-.322-.674-.714-1-.393-.325-1.01-1.226-1.371-2.002-.362-.775-1.169-2.235-1.794-3.243-.626-1.007-2.287-4.203-3.692-7.1-1.405-2.897-2.957-6.028-3.447-6.96-.491-.933-.892-1.966-.892-2.298 0-.332-.413-1.371-.916-2.311-.503-.941-.916-2.003-.916-2.361 0-.359-.299-1.236-.663-1.949-.829-1.621-2.011-5.249-2.571-7.89-.235-1.107-.641-2.27-.903-2.584-.262-.316-.6-1.677-.753-3.027-.152-1.35-.543-2.982-.867-3.628-.324-.646-.725-2.5-.889-4.122-.164-1.621-.565-3.669-.89-4.551-.326-.882-.741-4.144-.922-7.25-.18-3.106-.516-6.298-.744-7.091-.24-.841-.415-47.517-.419-111.931-.003-60.767-.177-110.592-.384-110.721-.441-.272-4.705 2.43-6.713 4.255-.757.687-2.509 2.106-3.894 3.153-1.385 1.048-3.138 2.44-3.893 3.092-.756.651-3.103 2.67-5.218 4.482-6.061 5.2-18.212 17.473-24.344 24.594-1.629 1.89-3.065 3.538-3.194 3.665-1.078 1.048-4.116 5.032-4.116 5.396 0 .253-.265.562-.59.685-.323.126-1.198 1.127-1.945 2.226-.746 1.1-1.462 2.102-1.59 2.227-1.297 1.276-10.99 15.379-10.99 15.989 0 .198-.413.733-.917 1.188-.505.456-.917 1.092-.917 1.413 0 .32-.259.855-.577 1.188-.318.333-.832 1.121-1.142 1.751-.572 1.163-1.08 2.008-2.518 4.191-.44.67-.8 1.546-.8 1.948 0 .403-.19.731-.419.731-.23 0-1.171 1.495-2.09 3.321a369.603 369.603 0 01-2.1 4.122 416.96 416.96 0 00-.858 1.604c-.803 1.499-2.89 5.833-3.806 7.901-.502 1.133-1.095 2.37-1.32 2.749-.224.377-.525.995-.669 1.374-.887 2.328-2.196 5.45-2.75 6.563-.356.714-.646 1.489-.646 1.724 0 .233-.394 1.298-.876 2.366-.482 1.069-1.115 2.713-1.408 3.654-.292.942-.723 1.829-.956 1.973-.233.145-.432.715-.44 1.267-.01.552-.415 1.828-.9 2.836-.487 1.007-.893 2.295-.901 2.864-.009.568-.428 1.801-.932 2.741-.503.94-.923 2.331-.93 3.09-.008.76-.317 1.781-.687 2.27-.371.489-.672 1.489-.672 2.222 0 .732-.303 1.981-.673 2.775-.687 1.476-1.768 5.879-2.547 10.375-.24 1.385-.731 3.549-1.093 4.81-.68 2.376-2.153 10.588-3.038 16.947a662.703 662.703 0 01-.893 6.184c-.21 1.385-.4 4.168-.423 6.183-.023 2.016-.35 5.708-.726 8.205C.122 245.474-.02 265.013.7 269.79c.247 1.637.662 6.275.924 10.305.26 4.031.678 8.05.927 8.932.25.882.646 3.715.88 6.295.237 2.58.64 5.085.898 5.568.258.48.607 2.389.777 4.239.169 1.851.561 3.778.871 4.281.31.504.702 2.203.868 3.778.166 1.573.602 3.575.967 4.45.366.874.666 2.164.667 2.865.003.7.322 1.883.71 2.627.388.746.832 2.292.985 3.436.154 1.145.532 2.494.84 2.998.308.504.695 1.818.859 2.92.163 1.104.6 2.438.97 2.966.37.527.672 1.486.672 2.13 0 .643.293 1.587.65 2.096.357.511.795 1.741.974 2.737.178.994.585 2.118.902 2.496.319.377.731 1.408.917 2.29.187.881.622 2.009.968 2.506.345.497.628 1.196.628 1.553 0 .358.396 1.497.88 2.533 2.273 4.866 2.784 6.119 2.784 6.835 0 .425.202.772.45.772.247 0 .585.566.753 1.26.266 1.095 1.28 3.337 2.54 5.611.21.378.588 1.202.838 1.832.252.63.665 1.455.919 1.831.253.379.577.997.72 1.374.143.379.454.997.693 1.376.24.376.762 1.408 1.164 2.289.4.882.863 1.707 1.025 1.832.164.127.913 1.411 1.667 2.856 2.193 4.207 2.66 5.015 4.467 7.727.942 1.412 1.712 2.708 1.712 2.881 0 .346 1.728 2.87 2.633 3.848.316.339.573.839.573 1.11 0 .272.721 1.373 1.603 2.449.882 1.077 1.603 2.085 1.603 2.242 0 .283 1.832 3.016 2.314 3.454.14.125.964 1.256 1.833 2.513.868 1.256 1.785 2.539 2.037 2.852.251.311.87 1.112 1.373 1.778a33.165 33.165 0 001.718 2.072c.441.473.803 1.017.804 1.206.002.189.616.998 1.367 1.798.75.8 2.445 2.759 3.764 4.352 8.385 10.112 21.173 22.906 30.595 30.606 1.386 1.132 2.725 2.278 2.977 2.544.252.268 1.283 1.085 2.29 1.818 1.008.732 2.085 1.546 2.393 1.806.309.262 1.098.887 1.755 1.391a41.575 41.575 0 011.728 1.392c.296.262 1.619 1.172 2.942 2.024 1.322.851 2.405 1.72 2.405 1.929 0 .209.277.381.615.381.339 0 .989.412 1.445.916.457.503 1.02.916 1.253.916.235 0 1.306.721 2.381 1.602 1.077.882 2.193 1.605 2.482 1.605.29 0 .896.36 1.347.8.452.441 1.741 1.296 2.863 1.901 1.123.604 2.351 1.338 2.729 1.629.377.292 1.202.778 1.832 1.081.63.305 1.763.96 2.519 1.458.756.499 1.89 1.162 2.52 1.475.628.313 1.247.691 1.374.84.125.15 1.568.936 3.205 1.748 1.639.812 3.287 1.673 3.665 1.913.377.241 1.202.643 1.832.895.63.25 1.455.641 1.832.866.378.226 1.203.637 1.832.914.63.278 1.455.682 1.833.898.7.402 1.772.897 6.642 3.069 1.51.674 3.585 1.616 4.609 2.091 1.026.476 2.084.866 2.353.866.27 0 1.08.307 1.802.684.722.375 1.627.685 2.012.687.384.001 1.106.286 1.603.631.498.346 1.625.784 2.507.975.882.19 2.01.628 2.506.974.496.345 1.321.636 1.832.644.511.009 1.754.414 2.762.9 1.007.487 2.305.892 2.884.901.58.008 1.61.301 2.291.648.68.349 2.165.784 3.299.969 1.133.183 2.275.507 2.538.718.262.21 1.808.687 3.435 1.058s3.783.883 4.79 1.138l3.894.98c1.133.284 3.827.786 5.987 1.116 2.161.329 4.362.832 4.894 1.117.532.284 2.063.519 3.402.523 1.339.003 4.394.412 6.786.91 2.393.497 5.898.913 7.788.925 1.889.011 5.599.315 8.244.678 3.175.434 8.933.657 16.948.657 8.014 0 13.771-.223 16.947-.657 2.645-.363 6.391-.664 8.326-.673 1.934-.008 5.607-.426 8.163-.93 2.557-.505 5.639-.917 6.85-.917 1.21 0 2.895-.286 3.744-.636.849-.35 2.884-.786 4.521-.968 1.639-.184 3.36-.534 3.826-.78.467-.244 2.203-.638 3.859-.872 1.654-.234 3.231-.605 3.503-.823.271-.219 1.42-.541 2.554-.714 1.911-.294 6.135-1.465 9.389-2.603.757-.264 2.097-.65 2.979-.857 2.119-.5 5.731-1.757 8.065-2.808 1.035-.466 2.273-.855 2.749-.862.475-.008 1.266-.317 1.755-.687.488-.371 1.262-.672 1.718-.672.458 0 1.6-.413 2.54-.916.94-.505 1.953-.918 2.252-.918.298 0 1.126-.298 1.839-.664.714-.365 2.326-1.099 3.587-1.631 1.26-.532 3.218-1.398 4.352-1.923l2.747-1.274c.379-.175 1.1-.541 1.603-.811.505-.27 2.668-1.351 4.81-2.399 2.142-1.048 4.718-2.394 5.726-2.991 1.007-.596 2.317-1.303 2.908-1.572.593-.268 2.139-1.157 3.436-1.975 3.909-2.466 4.148-2.608 5.335-3.179.63-.301 1.868-1.082 2.749-1.733.882-.653 2.169-1.43 2.863-1.728.693-.299 1.259-.754 1.259-1.012 0-.257.2-.468.444-.468.429 0 5.444-3.278 6.869-4.491.387-.328 2.352-1.812 4.368-3.295 6.28-4.624 7.697-5.703 8.395-6.4.371-.371 1.838-1.607 3.258-2.748 3.421-2.745 3.385-2.712 9.269-8.257 8.152-7.683 16.171-16.07 21.241-22.215 1.246-1.512 2.524-2.913 2.839-3.115.315-.202.573-.666.573-1.031 0-.364.166-.664.37-.664.203 0 .977-.831 1.718-1.846 2.1-2.882 3.74-5.008 5.341-6.934.433-.522.911-1.335 1.061-1.809.151-.475.471-.862.713-.862.24 0 .634-.515.873-1.145.241-.63.647-1.145.905-1.145.259 0 .469-.277.469-.617 0-.338.413-.988.916-1.445.505-.455.917-1.074.917-1.374 0-.3.411-.918.916-1.373.504-.457.916-1.006.916-1.221 0-.216.67-1.379 1.489-2.585 1.865-2.749 1.937-2.869 5.602-9.249 1.664-2.897 3.217-5.577 3.451-5.955 1.039-1.68 8.237-16.365 8.237-16.803 0-.269.31-.747.687-1.06.378-.314.688-1.079.688-1.701 0-.623.411-1.655.916-2.297.504-.64.916-1.509.916-1.931 0-.421.303-1.166.673-1.656.37-.489.68-1.301.69-1.805.01-.504.426-1.534.927-2.291.501-.755.912-1.735.913-2.177.002-.441.415-1.572.919-2.512.505-.94.916-2.13.916-2.645 0-.514.293-1.353.65-1.862.357-.51.798-1.741.981-2.736.182-.994.612-2.215.953-2.712.343-.497.624-1.424.626-2.061.001-.637.313-1.752.691-2.478.378-.726.818-2.169.976-3.207.157-1.037.5-2.298.761-2.802.438-.849.786-2.275 2.181-8.931a74.29 74.29 0 011.176-4.705c.357-1.202.848-3.756 1.091-5.674.243-1.92.623-3.72.842-3.998.221-.281.535-2.209.701-4.287.167-2.076.514-4.332.771-5.013.259-.68.666-4.031.903-7.446.239-3.414.691-7.754 1.009-9.644.788-4.703.763-36.525-.03-39.243-.307-1.054-.748-4.908-.98-8.568-.232-3.659-.626-7.035-.876-7.502-.249-.468-.599-2.692-.775-4.945-.177-2.253-.504-4.453-.73-4.889-.225-.437-.621-2.492-.882-4.567-.26-2.074-.645-3.984-.857-4.244-.211-.26-.619-2.008-.908-3.883-.287-1.876-.695-3.628-.906-3.894-.209-.266-.53-1.51-.712-2.767-.182-1.256-.592-2.802-.91-3.435-.319-.633-.719-2.054-.886-3.156-.17-1.102-.611-2.436-.98-2.965-.37-.528-.673-1.546-.673-2.262s-.236-1.743-.525-2.282c-.287-.538-.789-1.916-1.115-3.061-.9-3.172-1.963-6.073-2.718-7.421-.374-.669-.681-1.609-.681-2.088 0-.479-.303-1.273-.673-1.762-.37-.488-.678-1.206-.687-1.593-.007-.388-.414-1.49-.903-2.45-.489-.959-1.018-2.329-1.175-3.043-.156-.714-.581-1.543-.942-1.843-.362-.3-.658-.943-.658-1.429 0-.755-.805-2.594-2.369-5.417a21.408 21.408 0 01-.85-1.832c-.259-.63-1.216-2.589-2.13-4.352-.913-1.764-2.414-4.662-3.337-6.441-.922-1.778-2.024-3.731-2.45-4.338-.425-.607-.773-1.471-.773-1.919 0-.448-.189-.813-.418-.813-.231 0-1.164-1.289-2.073-2.863-1.965-3.408-2.325-3.985-4.265-6.844-.819-1.206-1.489-2.291-1.489-2.409 0-.999-13.064-18.661-17.405-23.532-.378-.424-1.69-2.007-2.916-3.517-1.224-1.51-2.513-2.912-2.861-3.114-.35-.2-.636-.543-.636-.76 0-.94-18.883-19.311-24.506-23.84-2.015-1.623-3.87-3.186-4.122-3.473-.251-.287-1.591-1.344-2.978-2.347-1.385-1.002-2.802-2.164-3.147-2.58-.346-.416-.809-.758-1.031-.758-.221 0-.791-.36-1.266-.8-.477-.441-1.941-1.523-3.258-2.405-1.316-.882-2.782-1.964-3.257-2.405-.477-.441-1.041-.8-1.258-.8-.216 0-1.304-.67-2.417-1.49-1.114-.82-2.35-1.695-2.745-1.947-2.549-1.62-4.921-3.177-5.982-3.925-.677-.478-2.428-1.51-3.893-2.292a716.838 716.838 0 01-5.869-3.18c-1.764-.967-5.371-2.844-8.016-4.174-2.645-1.328-4.878-2.58-4.962-2.782-.084-.2-.455-.365-.826-.365-.37 0-1.434-.389-2.365-.86-2.295-1.167-4.341-2.076-7.878-3.497-1.639-.658-3.597-1.477-4.352-1.82-.755-.343-1.993-.774-2.748-.956-.756-.183-1.781-.611-2.278-.951-.497-.341-1.327-.619-1.845-.619s-1.348-.28-1.845-.623c-.496-.341-1.706-.77-2.688-.948-.981-.181-2.218-.6-2.747-.93-.531-.332-1.728-.737-2.663-.9-.934-.164-2.274-.598-2.976-.965-.704-.367-1.839-.669-2.523-.67-.686-.001-1.922-.296-2.75-.654-1.831-.795-6.52-1.987-10.116-2.573-1.462-.239-3.026-.631-3.476-.872-.449-.24-2.503-.648-4.564-.907-2.06-.258-4.103-.657-4.539-.888-.437-.229-2.546-.568-4.688-.755-2.142-.186-4.821-.62-5.955-.964-1.133-.343-3.709-.633-5.724-.644-2.017-.01-6.139-.319-9.162-.686C262.488.768 246.646.4 240.246.922zm5.006 190.503c-.647.207-2.812.517-4.81.689-3.289.286-7.767 1.308-11.417 2.607a37.24 37.24 0 01-2.873.86c-.825.205-2.003.701-2.619 1.105-.614.403-1.526.733-2.023.733-.498 0-1.026.196-1.174.435-.148.239-1.551 1.086-3.119 1.881-1.567.795-2.954 1.582-3.079 1.748-.126.167-1.684 1.276-3.462 2.465-5.808 3.887-13.356 11.768-17.709 18.493-3.546 5.477-7.337 13.573-7.909 16.889-.175 1.007-.494 2.045-.71 2.307-.216.262-.618 1.889-.894 3.617-.276 1.726-.73 3.565-1.007 4.084-.869 1.624-.718 19.816.189 22.796.412 1.355.951 3.495 1.197 4.756.687 3.511 1.465 6.209 2.445 8.473 1.974 4.56 2.318 5.312 2.929 6.413a26.88 26.88 0 011.147 2.404c.282.694.7 1.26.926 1.26.228 0 .414.236.414.524 0 2.114 8.852 12.729 14.616 17.529 5.769 4.805 16.745 11.261 19.142 11.261.518 0 1.197.309 1.512.687.313.379.95.687 1.413.687.464 0 1.79.322 2.943.713 9.34 3.171 25.2 3.26 35.951.2 1.637-.465 3.544-.968 4.237-1.117.692-.148 1.26-.473 1.26-.72 0-.248.492-.45 1.095-.45.602 0 3.024-1.018 5.382-2.264 2.358-1.246 4.905-2.584 5.661-2.975 3.703-1.916 12.207-9.259 15.945-13.77 1.253-1.51 2.411-2.85 2.571-2.977 1.32-1.028 8.737-14.026 8.737-15.311 0-.215.386-1.238.855-2.273 3.801-8.368 6.336-33.089 3.718-36.245-.238-.286-.646-2.034-.908-3.884-.263-1.851-.661-3.586-.886-3.857-.223-.272-.559-1.319-.744-2.326-.185-1.008-.719-2.551-1.186-3.429-.466-.879-.849-1.809-.849-2.071 0-.741-3.285-7.091-4.928-9.524-.816-1.209-1.485-2.362-1.485-2.563 0-.201-.412-.737-.916-1.193-.503-.457-.916-.983-.916-1.172 0-.396-1.82-2.546-5.725-6.763-2.447-2.642-7.404-6.875-10.29-8.783a48.615 48.615 0 01-2.071-1.475c-1.529-1.168-11.792-6.312-12.597-6.315-.381-.001-1.243-.29-1.915-.641-.672-.35-2.115-.785-3.206-.965-1.091-.18-2.203-.503-2.472-.719-1.283-1.031-18.135-2.546-20.386-1.834z" fill="currentColor"/></svg>