<svg viewBox="0 0 475 512" fill="none" xmlns="http://www.w3.org/2000/svg"><path d="M238.153 511.413L13.863 17.399l448.536.873-224.246 493.141zm-185.545-469l185.56 408.712L423.691 43.131l-371.083-.719z" fill="currentColor"/><path d="M128.159 245.509L436.468 20.686l14.695 20.152L142.854 265.66l-14.695-20.152z" fill="currentColor"/><path d="M26.473 40.096l14.765-20.1 307.516 225.892-14.766 20.1L26.473 40.096z" fill="currentColor"/><path d="M32.833 65.218c-8.634 0-16.747-3.36-22.85-9.463C3.88 49.652.521 41.54.521 32.905.52 15.09 15.015.588 32.84.588c17.824 0 32.319 14.494 32.319 32.319 0 17.825-14.51 32.312-32.326 32.312zm409.658 0c-8.633 0-16.746-3.36-22.849-9.463-6.103-6.103-9.463-14.216-9.463-22.85 0-17.816 14.495-32.318 32.32-32.318 17.824 0 32.319 14.494 32.319 32.319 0 17.825-14.509 32.312-32.327 32.312zM341.368 280.786c-8.634 0-16.747-3.36-22.85-9.463-6.103-6.103-9.462-14.223-9.462-22.849 0-17.817 14.494-32.319 32.319-32.319 8.633 0 16.746 3.359 22.849 9.462 6.103 6.103 9.463 14.216 9.463 22.85 0 17.824-14.502 32.319-32.319 32.319zM238.674 511.112c-8.633 0-16.746-3.359-22.849-9.462-6.103-6.103-9.463-14.216-9.463-22.849 0-17.818 14.495-32.319 32.32-32.319 8.633 0 16.746 3.359 22.849 9.462 6.103 6.103 9.462 14.216 9.462 22.849 0 17.825-14.502 32.319-32.319 32.319zM138.093 280.786c-17.817 0-32.319-14.495-32.319-32.319 0-17.825 14.495-32.319 32.319-32.319 8.634 0 16.747 3.359 22.85 9.462 6.103 6.103 9.462 14.216 9.462 22.849 0 17.832-14.494 32.327-32.312 32.327z" fill="currentColor"/></svg>