<svg xmlns="http://www.w3.org/2000/svg" viewBox="0 0 401.991 401.991" fill="currentColor"><path d="M346.209 4.57C344.306 1.524 341.735 0 338.502 0H283.97c-3.997 0-6.759 1.812-8.281 5.424l-54.532 119.914c-1.335 3.237-3.953 9.042-7.847 17.419-3.902 8.375-6.804 14.845-8.707 19.414-7.042-16.562-12.372-28.458-15.989-35.691L127.227 5.14C125.318 1.713 122.562 0 118.945 0h-55.39c-3.422 0-6.089 1.524-7.992 4.57-1.521 3.044-1.521 6.09 0 9.136l91.647 165.023H86.109c-2.474 0-4.615.9-6.423 2.708-1.807 1.812-2.712 3.949-2.712 6.423v29.695c0 2.666.905 4.856 2.712 6.567 1.809 1.711 3.949 2.566 6.423 2.566h82.226v24.271H86.109c-2.474 0-4.615.903-6.423 2.71-1.807 1.808-2.712 3.949-2.712 6.427v29.403c0 2.669.905 4.859 2.712 6.57 1.809 1.712 3.949 2.567 6.423 2.567h82.229v94.219c0 2.662.903 4.853 2.712 6.563s3.949 2.57 6.423 2.57h49.11c2.471 0 4.609-.903 6.43-2.714 1.8-1.811 2.704-3.949 2.704-6.42v-94.219h82.799c2.471 0 4.613-.855 6.42-2.567 1.811-1.711 2.71-3.901 2.71-6.57v-29.403c0-2.478-.896-4.619-2.71-6.427-1.807-1.81-3.949-2.71-6.42-2.71h-82.799V226.69h82.799c2.471 0 4.613-.855 6.42-2.566 1.811-1.711 2.71-3.901 2.71-6.567v-29.695c0-2.474-.896-4.611-2.71-6.423-1.807-1.805-3.949-2.708-6.42-2.708h-61.384L346.498 13.42c1.518-3.234 1.425-6.184-.289-8.85z"/></svg>