<svg viewBox="0 0 16 21" xmlns="http://www.w3.org/2000/svg" fill="currentColor"><path d="M1.136 15.89c-.499-.3-.8-.83-.8-1.398V11.31c0-.12.031-.24.096-.342a.708.708 0 01.954-.246l7.345 4.184c.427.246.694.694.694 1.182v3.295a.8.8 0 01-.123.428.845.845 0 01-1.152.27l-7.014-4.19zm10.951-6.04c.431.243.694.694.694 1.183v6.686c0 .198-.11.376-.287.475l-1.606.882a.218.218 0 01-.065.027v-3.712c0-.482-.26-.926-.684-1.172l-6.446-3.774V6.258c0-.123.03-.239.092-.345a.71.71 0 01.957-.25l7.345 4.188zM15.3 4.916c.431.24.698.694.698 1.18v9.768a.551.551 0 01-.294.478l-1.525.804v-6.799c0-.478-.26-.923-.677-1.172L6.91 5.312V1.336c0-.123.03-.239.092-.345a.71.71 0 01.957-.25L15.3 4.916z" fillRule="evenodd"/></svg>