<svg viewBox="0 0 512 501" fill="none" xmlns="http://www.w3.org/2000/svg"><path d="M376.021 45.616l14.466-37.708C391.934 4.051 389.137 0 385.086 0h-53.717l-16.973 44.17h-23.821l13.887-36.262c1.447-3.857-1.35-7.908-5.4-7.908h-53.718l-16.973 44.17h-168c-7.618 0-14.755 4.147-18.516 10.801L0 128.844h313.913c10.416 0 20.735 1.929 30.379 5.883 18.517 7.619 40.409 24.882 34.912 63.747-9.162 65.098-75.513 180.44-219.499 182.273l74.452-193.846c3.086-8.004-2.797-16.491-11.38-16.491h-99.816L2.411 466.675s24.303 2.99 62.397 2.99l-11.959 31.15h54.875c4.34 0 8.294-2.7 9.933-6.751l10.319-26.81c8.101-.675 16.299-1.543 24.786-2.508l-13.888 36.069h54.875c4.34 0 8.294-2.7 9.933-6.751l15.623-40.794c90.172-20.542 187.095-65.29 244.67-159.705 116.21-190.374-4.533-239.558-87.954-247.949z" fill="currentColor"/></svg>