<svg viewBox="0 0 457 524" fill="none" xmlns="http://www.w3.org/2000/svg"><path d="M222.815 1.707L3.54 129.92a6.133 6.133 0 00-3.037 5.294v255.12a6.133 6.133 0 003.07 5.313l220.258 126.905a6.132 6.132 0 006.027.054l55.636-30.744a6.132 6.132 0 003.167-5.367v-65.417l-.021-.502a6.132 6.132 0 00-3.05-4.811l-163.842-94.392v-47.306l46.105 26.72a6.13 6.13 0 006.201-.031l56.291-33.361a6.134 6.134 0 003.006-5.275v-63.126l-.02-.496a6.135 6.135 0 00-2.981-4.777l-46.285-27.484 43.704-23.362 161.348 92.51a6.132 6.132 0 006.034.038l56.946-31.727a6.13 6.13 0 003.147-5.356v-63.454a6.132 6.132 0 00-3.083-5.32L228.958 1.68a6.13 6.13 0 00-6.143.027zm3.124 12.375L442.981 138.44v56.295l-50.774 28.289-161.284-92.475a6.13 6.13 0 00-5.94-.088l-56.292 30.091-.435.255c-3.781 2.42-3.765 8.074.196 10.425l52.633 31.254v56.139l-50.194 29.748-52.199-30.249c-4.088-2.369-9.206.58-9.206 5.305v61.489l.021.503a6.128 6.128 0 003.05 4.81l163.84 94.389v58.255l-49.444 27.323L12.766 386.791v-248.06L225.939 14.082z" fill="currentColor"/><path d="M234.989 72.743v61.818h-12.263V72.743h12.263zm54.001 30.091v65.415h-12.264v-65.415h12.264zm54.654 32.708v65.416H331.38v-65.416h12.264zm47.867 26.576a6.132 6.132 0 016.115 5.674l.017.457v62.145a6.133 6.133 0 01-12.247.458l-.017-.458v-62.145a6.131 6.131 0 016.132-6.131zm-214.128 68.603v65.416H165.12v-65.416h12.263zm0-126.905v62.472H165.12v-62.472h12.263zm0 319.228v63.127H165.12v-63.127h12.263zm-55.631-33.69v65.416h-12.264v-65.416h12.264z" fill="currentColor"/><path d="M390.382 98.193l6.188 10.588-55.964 32.708-6.188-10.588 55.964-32.708zM226.089 386.022l6.188 10.588-55.964 32.706-6.188-10.587 55.964-32.707zm-55.285-32.067l6.141 10.614-55.964 32.382-6.142-10.615 55.965-32.381zm-55.966-32.707l6.142 10.615-55.965 32.379-6.141-10.615 55.964-32.379zm-2.629-64.102l6.162 10.603-56.292 32.708-6.161-10.603 56.291-32.708z" fill="currentColor"/><path d="M167.196 161.966l6.157 10.606-51.602 29.954.001 62.539h-12.264v-69.6l57.708-33.499zm167.215-95.167l6.201 10.58-53.018 31.073-6.2-10.58 53.017-31.073zm-56-34.324l6.271 10.54-56.618 33.688-6.271-10.539 56.618-33.689z" fill="currentColor"/><path d="M177.355 32.155l56.292 33.69-6.298 10.522-56.291-33.689 6.297-10.523zm-58.6 32.703l56.619 33.689-6.271 10.539-56.619-33.69 6.271-10.538zM8.135 255.216l56.62 33.689-6.272 10.539-56.618-33.689 6.27-10.539zm56.345 98.041l3.272 2.29-7.03 10.048-3.274-2.29 7.032-10.048z" fill="currentColor"/><path d="M11.069 321.608l53.019 31.397-6.249 10.552L4.82 332.159l6.249-10.551zM225.723 63.874a6.132 6.132 0 015.875-.213l.456.252 159.555 97.533 55.431-31.874a6.131 6.131 0 018.117 1.853l.255.406a6.132 6.132 0 01-1.852 8.117l-.407.255-58.582 33.689a6.13 6.13 0 01-5.805.166l-.45-.25-159.505-97.504-109.078 64.836a6.132 6.132 0 01-8.129-1.716l-.275-.422a6.134 6.134 0 011.716-8.129l.422-.275 112.256-66.724z" fill="currentColor"/><path d="M66.342 97.536l108.328 63.126-6.174 10.596-108.329-63.126 6.175-10.596zm1.408 259.111v67.05H55.487v-67.05H67.75z" fill="currentColor"/><path d="M115.216 130.533l6.042 10.672-53.509 30.288.001 59.229H55.487v-66.374l59.729-33.815z" fill="currentColor"/><path d="M2.046 130.728a6.133 6.133 0 017.98-2.311l.44.243 160.538 97.228 54.135-31.225a6.132 6.132 0 018.119 1.842l.256.406a6.133 6.133 0 01-1.842 8.12l-.406.255-57.274 33.035a6.129 6.129 0 01-5.79.18l-.45-.247L4.114 139.15a6.133 6.133 0 01-2.068-8.422zm59.572 94.188a6.132 6.132 0 016.115 5.674l.017.458v122.076l162.234 94.714a6.13 6.13 0 013.02 4.795l.021.5v64.107a6.132 6.132 0 01-12.247.458l-.017-.458-.001-60.587-162.233-94.711a6.13 6.13 0 01-3.02-4.795l-.02-.5V231.048a6.132 6.132 0 016.131-6.132z" fill="currentColor"/><path d="M279.471 415.769a6.132 6.132 0 016.528 10.371l-.406.255-55.637 32.054a6.132 6.132 0 01-6.528-10.371l.406-.255 55.637-32.054zM9.155 192.113l108.656 65.743-6.349 10.492L2.806 202.605l6.349-10.492z" fill="currentColor"/></svg>