<svg viewBox="0 0 493 490" fill="none" xmlns="http://www.w3.org/2000/svg"><g clip-path="url(#clip0)" fillRule="evenodd" clip-rule="evenodd" fill="currentColor"><path d="M168.96 102.56c25.3-16.5 53.32-24.82 84.07-24.88 30.35-.06 58.4 8.31 84.15 25.06l53.94-53.94C349.18 16.6 303.17.5 253.07.55c-50.36.05-96.35 16.11-137.96 48.16l53.85 53.85zm-67.51 231.37c-17.1-25.97-25.67-54.04-25.61-84.23.06-30.59 8.57-58.63 25.43-84.17l-53.79-53.78C15.88 152.92.05 198.92 0 249.73c-.05 50.35 15.85 96.35 47.64 138.01l53.8-53.8.01-.01zm236.18 53.53c-25.6 17.24-53.61 26-84.04 26.21-30.91.2-59.26-8.5-85.06-26.03l-53.56 53.56c41.66 32.39 87.96 48.4 138.93 48 50.47-.4 96.25-16.43 137.36-48.1l-53.63-53.64zm53.05-221.95c17.26 26.08 25.75 54.64 25.38 85.72-.36 29.97-8.88 57.57-25.49 82.8l53.83 53.83c31.7-41.27 47.77-87.03 48.17-137.3.4-50.97-15.62-97.28-48-138.93l-53.9 53.88h.01zM43.2 51.2a8.06 8.06 0 010-11.32 8.1 8.1 0 0111.4 0 8.07 8.07 0 010 11.31 8 8 0 01-5.7 2.33 7.85 7.85 0 01-5.7-2.33v.01zm22.7 22.69a7.79 7.79 0 01-2.33-5.69 8 8 0 0113.64-5.62 7.83 7.83 0 010 11.31 7.68 7.68 0 01-5.61 2.33 7.748 7.748 0 01-5.7-2.32v-.01zM88.6 96.6a7.89 7.89 0 01-2.32-5.7 8 8 0 0113.64-5.7 7.947 7.947 0 011.781 8.787 7.944 7.944 0 01-1.78 2.603 8.01 8.01 0 01-11.32 0v.01zm22.71 22.7a7.929 7.929 0 01-2.408-5.695 7.937 7.937 0 012.408-5.695 7.998 7.998 0 019.774-1.174 7.997 7.997 0 013.866 6.874c0 2.1-.72 4.1-2.32 5.7a8.05 8.05 0 01-11.32 0v-.01zm22.63 22.71a8.357 8.357 0 01-2.33-5.7c0-2.08.8-4.09 2.33-5.7a8.1 8.1 0 0111.39 0c1.53 1.61 2.33 3.62 2.33 5.7 0 2-.8 4.1-2.33 5.7a8.2 8.2 0 01-5.7 2.32c-2 0-4.09-.8-5.7-2.32h.01zm22.7 22.63a8.023 8.023 0 011.253-12.315 8.027 8.027 0 018.895-.002 8.02 8.02 0 011.252 12.317 7.978 7.978 0 01-2.607 1.778 7.976 7.976 0 01-6.186 0 7.978 7.978 0 01-2.607-1.778zm22.7 22.7a8.06 8.06 0 010-11.31 8.088 8.088 0 0111.4 0 8.04 8.04 0 012.284 6.468 8.057 8.057 0 01-3.53 5.882 8.055 8.055 0 01-4.454 1.36 7.957 7.957 0 01-5.7-2.4zm22.71 22.7a8.03 8.03 0 010-11.31 8.101 8.101 0 0111.4 0 8.06 8.06 0 010 11.31 8.022 8.022 0 01-5.7 2.33 7.738 7.738 0 01-3.091-.575 7.732 7.732 0 01-2.609-1.755zm22.7 22.71a7.878 7.878 0 01-2.32-5.7 8.004 8.004 0 012.33-5.7 8.074 8.074 0 0111.39 0c1.52 1.6 2.32 3.7 2.32 5.7 0 2.09-.8 4.1-2.32 5.7a8.378 8.378 0 01-5.7 2.33 8.08 8.08 0 01-5.7-2.33zm22.71 22.7a7.878 7.878 0 01-2.32-5.7 7.981 7.981 0 0115.96 0c0 2.1-.73 4.1-2.33 5.7a8.02 8.02 0 01-11.3 0h-.01zm22.7 22.62a7.82 7.82 0 01-2.4-5.62 8.001 8.001 0 012.4-5.7 8 8 0 1111.31 11.32c-1.6 1.61-3.6 2.4-5.7 2.4-2 0-4.08-.79-5.61-2.4zm22.7 22.7a7.89 7.89 0 01-2.397-5.655 7.905 7.905 0 01.625-3.071 7.897 7.897 0 011.772-2.584 8.005 8.005 0 1111.32 11.32 7.938 7.938 0 01-5.7 2.4c-2 0-4.09-.8-5.62-2.4v-.01zm22.63 22.71a8.05 8.05 0 010-11.31 8.101 8.101 0 0111.4 0 8.021 8.021 0 010 11.31 7.87 7.87 0 01-5.7 2.33 7.875 7.875 0 01-3.088-.583 7.872 7.872 0 01-2.612-1.747zm22.7 22.7a8.08 8.08 0 010-11.3 8.088 8.088 0 0111.4 0 8.041 8.041 0 010 11.3 7.987 7.987 0 01-2.616 1.74 7.992 7.992 0 01-3.084.6 7.878 7.878 0 01-5.7-2.33v-.01zm22.71 22.71a7.757 7.757 0 01-2.32-5.7 8 8 0 0113.64-5.7c1.6 1.62 2.4 3.7 2.4 5.7 0 2.1-.8 4.18-2.4 5.7a8.042 8.042 0 01-11.32 0zm22.7 22.7a7.89 7.89 0 01-2.32-5.69 7.981 7.981 0 014.929-7.378 7.972 7.972 0 016.112 0 7.982 7.982 0 014.321 4.322c.402.969.608 2.007.608 3.056a7.9 7.9 0 01-2.33 5.7 8.04 8.04 0 01-11.31 0l-.01-.01zm22.63 22.71a8.338 8.338 0 01-2.32-5.7c0-2.08.8-4.08 2.32-5.69a8.08 8.08 0 0111.4 0 7.918 7.918 0 012.32 5.7c0 2-.73 4.09-2.33 5.7a8.1 8.1 0 01-11.39 0v-.01zm22.7 22.71a8.396 8.396 0 01-2.32-5.7c0-2.09.8-4.1 2.32-5.7a8.084 8.084 0 0111.4 0 8.2 8.2 0 012.32 5.7c0 2-.8 4.1-2.32 5.7a8.25 8.25 0 01-5.7 2.33 8.402 8.402 0 01-5.7-2.33zm22.7 22.62a8.03 8.03 0 010-11.31 8.08 8.08 0 0111.4 0 8.047 8.047 0 01-1.24 12.362 8.049 8.049 0 01-4.46 1.358 8.1 8.1 0 01-5.7-2.41z"/><path d="M451.64 51.19a8.058 8.058 0 010-11.31 8.09 8.09 0 0111.39 0 8.03 8.03 0 010 11.31 7.923 7.923 0 01-8.796 1.788 7.93 7.93 0 01-2.604-1.788h.01zm-22.62 22.7a7.972 7.972 0 01-2.41-5.69c0-2 .8-4.1 2.4-5.62a8.001 8.001 0 0112.306 10.104A8 8 0 01429.01 73.9l.01-.01zM406.31 96.6a7.92 7.92 0 01-1.784-8.787 7.927 7.927 0 011.784-2.603 7.99 7.99 0 0113.65 5.7c0 2.08-.74 4.09-2.34 5.69a8.07 8.07 0 01-11.3 0h-.01zm-22.7 22.7a8.33 8.33 0 01-2.33-5.7 8.005 8.005 0 014.915-7.408 8.004 8.004 0 018.725 1.708c1.6 1.62 2.4 3.62 2.4 5.7a8.1 8.1 0 01-8.02 8.03 8.065 8.065 0 01-5.7-2.33h.01zM360.9 142a8.358 8.358 0 01-2.32-5.69c0-2.08.8-4.09 2.32-5.7a8.087 8.087 0 0111.4 0 8.2 8.2 0 012.32 5.7c0 2-.8 4.1-2.33 5.7a8.2 8.2 0 01-5.7 2.32 8.195 8.195 0 01-5.69-2.32V142zm-22.7 22.63a8.032 8.032 0 013.367-13.346 8.025 8.025 0 019.211 3.547 8.028 8.028 0 01.684 6.825 8.023 8.023 0 01-1.872 2.974 7.962 7.962 0 01-11.4 0h.01zm-22.71 22.71a8.06 8.06 0 010-11.31 8.101 8.101 0 0111.4 0 8.03 8.03 0 010 11.31 7.88 7.88 0 01-5.7 2.32 7.998 7.998 0 01-5.7-2.32zm-22.62 22.7a7.866 7.866 0 01-1.776-2.58 7.86 7.86 0 011.776-8.72 7.843 7.843 0 0111.3 0c1.61 1.51 2.34 3.6 2.34 5.6a7.756 7.756 0 01-2.33 5.7 7.743 7.743 0 01-5.7 2.33c-2 0-4.09-.72-5.61-2.33zm-22.71 22.7a7.998 7.998 0 01-2.4-5.69c0-2 .8-4.1 2.4-5.7a7.978 7.978 0 018.737-1.736 7.975 7.975 0 014.903 7.436c0 2.09-.72 4.1-2.33 5.7a8.07 8.07 0 01-11.31 0v-.01zm-22.7 22.71a7.88 7.88 0 01-2.32-5.7 7.98 7.98 0 1115.96 0c0 2.1-.73 4.1-2.33 5.7a8.03 8.03 0 01-11.3 0h-.01zm-22.7 22.62a8.021 8.021 0 010-11.31 8.001 8.001 0 0111.3 0c1.61 1.6 2.42 3.6 2.42 5.7 0 2-.8 4.1-2.42 5.61a7.733 7.733 0 01-5.6 2.41c-2.1 0-4.1-.8-5.7-2.4v-.01zm-22.7 22.71a8.01 8.01 0 010-11.32 8.1 8.1 0 0111.39 0 8.047 8.047 0 01-1.239 12.362 8.052 8.052 0 01-4.461 1.358 7.956 7.956 0 01-5.7-2.4h.01zm-22.71 22.7a8.07 8.07 0 010-11.31 8.09 8.09 0 0111.39 0 8.03 8.03 0 010 11.31 7.856 7.856 0 01-5.7 2.33 7.875 7.875 0 01-3.088-.583 7.872 7.872 0 01-2.612-1.747h.01zm-22.63 22.7a7.829 7.829 0 01-2.4-5.69c0-2 .8-4.09 2.4-5.7a8.14 8.14 0 0111.31 0c1.53 1.61 2.33 3.7 2.33 5.7 0 2.08-.8 4.17-2.33 5.7a7.88 7.88 0 01-5.7 2.32 7.703 7.703 0 01-5.6-2.32l-.01-.01zm-22.7 22.71a7.824 7.824 0 01-2.4-5.7c0-2 .8-4.08 2.4-5.69a8.14 8.14 0 0111.31 0 7.998 7.998 0 012.33 5.7 7.756 7.756 0 01-2.33 5.7 8.07 8.07 0 01-11.31 0v-.01zm-22.7 22.71a7.878 7.878 0 01-2.33-5.7 7.979 7.979 0 016.023-7.811 7.978 7.978 0 017.617 2.111 7.962 7.962 0 010 11.4 8.05 8.05 0 01-11.32 0h.01zm-22.71 22.7a8.03 8.03 0 01-2.33-5.7 7.899 7.899 0 012.33-5.69 8.08 8.08 0 0111.39 0c1.52 1.6 2.33 3.61 2.33 5.7 0 2-.8 4.09-2.33 5.7a8.357 8.357 0 01-5.7 2.32 8.089 8.089 0 01-5.7-2.33h.01zM65.9 437a8.379 8.379 0 01-2.32-5.69c0-2.09.8-4.17 2.32-5.7a8.089 8.089 0 0111.4 0c1.52 1.53 2.32 3.61 2.32 5.7 0 2-.8 4.1-2.32 5.7a8.241 8.241 0 01-5.7 2.33 8.23 8.23 0 01-5.7-2.33V437zm-22.7 22.62a7.98 7.98 0 010-11.3 8.08 8.08 0 0111.4 0 8.019 8.019 0 010 11.3 7.916 7.916 0 01-5.7 2.417 7.934 7.934 0 01-5.7-2.417zm403.46-53.85a37.425 37.425 0 110 74.85 37.425 37.425 0 010-74.85z"/><path d="M60.01 405.77a37.44 37.44 0 0126.862 10.743 37.423 37.423 0 018.272 41.147 37.434 37.434 0 01-38.533 22.751 37.426 37.426 0 01-33.419-37.216A37.43 37.43 0 0160.01 405.77zM447.02 19.04a37.433 37.433 0 0120.796 68.553A37.429 37.429 0 01447.02 93.9a37.432 37.432 0 010-74.86zm-387.01 0a37.43 37.43 0 110 74.861 37.43 37.43 0 010-74.861z"/></g><defs><clipPath id="clip0"><path fill="currentColor" d="M0 0h493v490H0z"/></clipPath></defs></svg>