<svg viewBox="0 0 13 18" xmlns="http://www.w3.org/2000/svg" fill="currentColor"><path d="M12.188.463c-2.817-1.78-4.833 2.141-4.88 2.262-.503.98-.916 2.48-1.172 3.6l-3.67-.544-.145.991 3.624.535c-.1.516-.15.85-.15.85l-.2 1.089h.012l-.013.064-3.588-.528-.133.997 3.552.518c-.934 4.714-1.625 6.134-2.32 6.907-.142.166-1.14.835-1.643-.36-.35-.834-1.014-.72-1.014-.72-.188-.017-1.062.547.306 1.412 2.806 1.783 4.833-2.14 4.88-2.26.504-.98 1.173-3.628 1.43-4.748l3.693.546.144-.989-3.637-.522c.1-.518.151-.85.151-.85l.18-1.093h-.011l.01-.064 3.596.53.136-.99-3.552-.531C8.708 1.85 9.142 1.577 9.837.795c.143-.166 1.14-.833 1.643.36.35.834 1.023.72 1.023.72.188.019 1.06-.547-.309-1.412"/></svg>