<svg viewBox="0 0 218 512" fill="none" xmlns="http://www.w3.org/2000/svg"><g clip-path="url(#clip0)"><path d="M119.926 504.521V328.027L0 266.555v167.821a26.098 26.098 0 003.47 12.445 21.05 21.05 0 007.542 8.674l101.371 55.513c.97.557 2.052.892 3.168.98a4.814 4.814 0 001.659-.453 4.068 4.068 0 001.358-1.583 11.91 11.91 0 001.131-5.431h.227zM0 246.718l.754 2.716h4.45l134.483-69.014L5.204 114.876H2.187A25.336 25.336 0 000 123.474v123.244zm148.663-58.077l60.34 30.849a16.59 16.59 0 016.184 6.487 20.732 20.732 0 012.716 9.654v126.488a8.908 8.908 0 01-.754 3.846c-.225.476-.561.89-.981 1.207a2.483 2.483 0 01-1.131 0 5.357 5.357 0 01-2.339-.679L8.9 262.558a13.167 13.167 0 01-2.263-1.509H8.9l139.763-72.408zM8.9 107.635h-.905a107.06 107.06 0 0116.97-10.258L212.549.682A5.65 5.65 0 01214.81.08a1.81 1.81 0 011.132 0c.419.286.756.676.98 1.131a9.616 9.616 0 01.756 3.922V132.3a20.233 20.233 0 01-2.717 9.579 16.361 16.361 0 01-6.185 6.562l-60.34 30.773L8.9 107.635z" fill="currentColor"/></g><defs><clipPath id="clip0"><path fill="currentColor" d="M0 0h218v512H0z"/></clipPath></defs></svg>