<svg viewBox="0 0 513 450" fill="none" xmlns="http://www.w3.org/2000/svg"><g clip-path="url(#clip0)"><path d="M509.539 214.587c3.328 5.764 3.328 15.194.002 20.958L391.863 439.367c-3.328 5.764-11.495 10.479-18.151 10.48l-53.923-.002 78.207-135.456c2.206-3.82 2.206-10.036.001-13.856l-88.797-153.8c-2.206-3.821-7.588-6.928-12.001-6.928l-177.595-.003c-4.411.001-9.793 3.108-11.999 6.928L29.43 282.134l-26.899-46.59c-3.327-5.764-3.328-15.194 0-20.958L120.207 10.763C123.536 5.001 131.703.286 138.358.283l235.355.001c6.654 0 14.821 4.717 18.148 10.48l117.678 203.823zm-139.21 87.849c1.522 2.637 1.523 7.088.001 9.724l-76.678 132.813c-1.523 2.634-5.378 4.86-8.421 4.862l-44.968-.001 39.27-68.018c1.791-3.098 1.788-8.139.001-11.236l-50.53-87.52c-1.788-3.097-6.152-5.618-9.731-5.616l-101.057-.001c-3.577.001-7.942 2.521-9.729 5.617L69.23 351.057l-22.457-38.898c-1.523-2.636-1.522-7.088 0-9.722l76.679-132.812c1.521-2.637 5.376-4.863 8.421-4.862H285.23c3.044-.002 6.898 2.225 8.42 4.861l76.679 132.812zm-118.371 70.088c1.112 1.927 1.112 5.179 0 7.103l-38.487 66.661c-1.098 1.904-3.863 3.511-6.074 3.546l-69.329-.001c-6.554-.133-14.461-4.72-17.782-10.345l-34.638-59.994c-1.043-1.937-1.027-5.085.06-6.968l38.487-66.663c1.113-1.925 3.93-3.551 6.151-3.551l76.975.001c2.222-.002 5.038 1.624 6.15 3.55l38.487 66.661z" fill="currentColor"/></g><defs><clipPath id="clip0"><path fill="currentColor" d="M0 0h513v450H0z"/></clipPath></defs></svg>