<svg viewBox="0 0 512 512" fill="none" xmlns="http://www.w3.org/2000/svg"><path d="M420.267 133.973L364.8 189.44c11.947 19.627 18.773 42.24 18.773 66.987 0 70.826-57.173 128-128 128a128.702 128.702 0 01-66.986-18.774L133.12 421.12c34.133 25.173 76.373 40.533 122.027 40.533 113.066 0 204.8-91.733 204.8-204.8.853-46.506-14.08-88.746-39.68-122.88zM128 256c0-70.827 57.173-128 128-128a128.705 128.705 0 0166.987 18.773l55.466-55.466C344.32 66.133 302.08 50.773 256.427 50.773c-113.067 0-204.8 91.734-204.8 204.8 0 45.654 14.933 87.894 40.533 122.027l55.467-55.467C134.827 303.36 128 280.32 128 256zm332.8-153.6c28.277 0 51.2-22.923 51.2-51.2C512 22.923 489.077 0 460.8 0c-28.277 0-51.2 22.923-51.2 51.2 0 28.277 22.923 51.2 51.2 51.2zM51.2 512c28.277 0 51.2-22.923 51.2-51.2 0-28.277-22.923-51.2-51.2-51.2-28.277 0-51.2 22.923-51.2 51.2C0 489.077 22.923 512 51.2 512z" fill="currentColor"/></svg>