<svg fill="none" xmlns="http://www.w3.org/2000/svg" viewBox="0 0 78 67">
  <path d="M.753 53V.636h18.665c4.056 0 7.423.7 10.099 2.097 2.693 1.398 4.705 3.332 6.034 5.804 1.33 2.454 1.994 5.292 1.994 8.514 0 3.205-.673 6.026-2.02 8.463-1.329 2.42-3.34 4.304-6.034 5.65-2.676 1.347-6.042 2.02-10.099 2.02H5.252v-6.8h13.424c2.557 0 4.637-.367 6.239-1.1 1.62-.733 2.804-1.798 3.554-3.196.75-1.398 1.125-3.077 1.125-5.037 0-1.977-.384-3.69-1.15-5.14-.75-1.448-1.935-2.556-3.555-3.323-1.602-.784-3.707-1.176-6.315-1.176h-9.92V53H.752Zm25.85-23.625L39.54 53h-9L17.858 29.375h8.744Zm19.371 36.716v-48h6.637v5.659h.568c.394-.727.962-1.568 1.704-2.523.743-.954 1.773-1.788 3.091-2.5 1.319-.727 3.061-1.09 5.228-1.09 2.818 0 5.333.712 7.545 2.136 2.212 1.424 3.947 3.477 5.205 6.159 1.272 2.682 1.909 5.909 1.909 9.682 0 3.772-.629 7.007-1.887 9.704-1.257 2.682-2.984 4.75-5.181 6.205-2.197 1.44-4.705 2.159-7.523 2.159-2.121 0-3.856-.356-5.205-1.068-1.333-.712-2.378-1.546-3.136-2.5-.758-.955-1.34-1.803-1.75-2.546h-.41v18.523h-6.795Zm6.66-30.545c0 2.454.356 4.605 1.068 6.454.712 1.849 1.742 3.295 3.09 4.34 1.35 1.031 3 1.546 4.955 1.546 2.03 0 3.727-.538 5.091-1.613 1.364-1.091 2.394-2.569 3.091-4.432.712-1.864 1.068-3.962 1.068-6.296 0-2.303-.348-4.37-1.045-6.204-.682-1.833-1.712-3.28-3.091-4.341-1.364-1.06-3.068-1.59-5.114-1.59-1.97 0-3.636.507-5 1.522-1.348 1.015-2.371 2.432-3.068 4.25-.697 1.818-1.046 3.94-1.046 6.363Z" fill="currentColor"/>
</svg>