<svg viewBox="0 0 508 508" fill="none" xmlns="http://www.w3.org/2000/svg"><path d="M199.98 3.803C136.011 18.49 78.286 58.69 42.037 113.579 23.76 141.1 12.794 167.23 5.33 201.091.152 223.664-1.523 263.4 1.523 287.829c7.768 63.856 39.143 120.599 89.862 163.582 26.501 22.419 56.353 38.963 56.353 31.232 0-1.082-3.198-4.947-7.006-8.813-26.044-25.511-39.752-70.195-34.269-111.786 7.311-55.352 29.7-92.305 73.412-121.063 8.225-5.411 15.688-9.895 16.602-9.895 3.198 0 1.218-6.494-6.702-21.956-15.23-29.222-20.714-49.321-20.714-75.915 0-40.818 17.059-84.42 43.256-110.859 7.615-7.576 8.529-9.122 8.529-15.152 0-6.03-.305-6.494-4.112-6.339-2.437 0-9.9 1.392-16.754 2.938zm154.897 16.234c0 1.237 2.284 5.566 5.178 9.586 13.556 19.482 20.714 40.51 21.78 64.629 1.371 29.222-6.397 54.579-20.714 67.412-10.509 9.431-19.647 9.741-32.746 1.391-9.291-6.03-10.357-10.359-4.112-18.399 10.509-13.451 16.906-34.479 16.906-56.125 0-22.419-4.265-34.943-15.84-45.766-12.489-11.596-25.131-14.997-42.037-10.977-17.211 3.865-33.355 22.573-42.037 48.703-4.417 13.452-8.224 36.644-8.224 50.095.152 25.357 7.615 55.198 18.429 73.442 6.092 10.359 21.171 27.367 30.157 34.015 3.351 2.474 6.244 5.103 6.244 5.566 0 .619-3.198 2.165-7.158 3.711-29.243 10.978-58.638 43.911-71.737 80.245-8.377 23.192-11.423 42.055-10.357 63.701 1.219 26.594 5.94 39.118 20.866 55.507 11.728 12.987 33.965 18.863 60.619 16.234 30.766-3.247 54.374-14.379 74.63-35.561 8.834-9.432 10.662-10.514 12.337-8.504 1.523 1.855 1.219 3.402-1.98 8.968-20.104 34.633-57.572 64.319-92.298 72.978-7.615 1.855-10.814 3.401-10.814 5.102 0 5.566 47.368-2.165 76.002-12.369 73.26-25.975 133.573-87.667 157.943-161.263 10.052-30.459 11.727-42.519 11.88-80.399.152-29.532-.305-36.335-3.351-51.332-14.774-74.524-62.142-138.07-131.442-176.415-12.184-6.803-18.124-8.195-18.124-4.175z" fill="currentColor"/></svg>