<svg viewBox="0 0 462 511" fill="none" xmlns="http://www.w3.org/2000/svg"><path d="M230.618 503.957c-3.504-3.504 14.924-169.832-93.758-278.423C83.282 172.01 9.496 130.687 9.148 131.286c-.342.599 38.512 20.444 207.835 116.671a27.831 27.831 0 0027.415 0c169.251-96.227 208.05-116.199 207.761-116.671-.292-.472-74.132 40.724-127.711 94.248-108.754 108.591-90.326 274.919-93.83 278.423z" fill="currentColor"/><path d="M230.636.004L0 127.474v255.345l230.636 127.47 230.618-127.47V127.474L230.636.004zM10.894 133.9L230.636 12.451 450.36 133.9v242.493L230.636 497.842 10.894 376.393V133.9z" fill="currentColor"/><path d="M230.6 210.3c15.133 0 27.4-11.954 27.4-26.7 0-14.746-12.267-26.7-27.4-26.7s-27.4 11.954-27.4 26.7c0 14.746 12.267 26.7 27.4 26.7z" fill="currentColor"/></svg>