<svg viewBox="0 0 360 512" fill="none" xmlns="http://www.w3.org/2000/svg"><path d="M153.452 256l191.226 109.63c6.639 3.836 15.05-1.033 15.05-8.706V154.928c0-7.673-8.411-12.542-15.05-8.706L153.452 256zM333.611 99.006L206.57 2.066c-5.902-4.427-14.312-1.328-15.935 5.902l-46.331 216.014 188.275-108.155c6.197-3.689 6.787-12.394 1.032-16.82zM206.57 509.934l127.189-97.088c5.754-4.426 5.164-13.132-1.033-16.673L144.304 288.018l46.479 216.014c1.328 7.23 9.885 10.329 15.787 5.902z" fill="currentColor"/><path d="M104.466 256l50.019-232.687c1.918-9.148-8.558-15.788-15.935-10.033L10.476 111.105C3.836 116.122 0 123.942 0 132.205V380.09c0 8.263 3.836 16.083 10.476 21.1l128.074 97.678c7.377 5.607 17.853-1.033 15.935-10.033L104.466 256z" fill="currentColor"/></svg>