<svg viewBox="0 0 432 510" fill="none" xmlns="http://www.w3.org/2000/svg"><path d="M168.549 508.637l66.523-74.745c1.121-1.121.373-2.99-1.495-2.99h-73.25c-.374 0-1.121-.374-1.495-.747l-62.038-69.513c-.373-.747-.747-1.495-.373-2.242l103.894-178.266c.374-.747.374-1.495 0-1.868l-42.978-73.997c-.747-1.122-2.616-1.122-3.363 0L.374 368.117c-.374.747-.374 1.495 0 2.242L123.702 509.01c.374.374.748.748 1.495.748h41.857c.374-.374 1.121-.748 1.495-1.121z" fill="currentColor"/><path d="M214.143 1.121l-43.352 73.997c-.373.748-.373 1.495 0 1.869l44.847 76.987 118.844 204.052c.374.748.374 1.495-.374 2.243l-62.785 70.259-66.897 75.492c-1.121 1.122-.373 2.99 1.495 2.99h100.158c.374 0 1.121-.373 1.495-.747l123.328-138.651c.374-.748.748-1.495.374-2.243L217.133 1.121c-.374-1.495-2.242-1.495-2.99 0z" fill="currentColor"/></svg>