<svg viewBox="0 0 512 512" fill="none" xmlns="http://www.w3.org/2000/svg"><path d="M243.747.141c-.588.047-2.917.188-5.176.33-8.989.564-20.141 1.953-29.341 3.647-46.871 8.635-90.024 30.07-125.6 62.353-4.8 4.353-14.424 14.023-18.495 18.588C29.3 125.224 7.347 174.329 1.418 227.647.265 237.788.1 241.341.1 255.765c0 14.07.094 16.329 1.082 26.235 4.212 42.071 18.871 82.471 42.73 117.624 13.459 19.858 29.741 37.788 48.306 53.27 33.341 27.765 73.388 46.659 115.859 54.635a257.98 257.98 0 0095.576 0c66.588-12.517 125.882-51.482 164.165-107.905 26.306-38.777 41.247-83.389 43.717-130.542.353-6.917.142-26.211-.353-32.494-3.788-46.917-19.129-89.859-45.623-127.647-12.659-18.047-28.729-35.53-45.718-49.67C380.971 26.894 333.865 6.824 284.1 1.41 274.265.354 270.853.189 257.63.119c-7.059-.024-13.295-.024-13.883.023zM273.159 20.8c35.318 2.847 67.271 12.4 97.294 29.153 37.788 21.059 69.365 52.447 90.706 90.165 2.8 4.964 8.212 15.741 10.353 20.588 9.67 22.094 15.976 45.459 18.588 68.941 1.647 14.871 1.859 31.577.588 46.588-4.07 47.953-22.941 93.671-54.023 130.824-29.53 35.317-68.612 61.2-112.447 74.494-15.083 4.588-31.153 7.718-46.824 9.129-13.859 1.271-29.2 1.271-43.059 0-45.505-4.117-88.988-21.553-124.823-50.047-51.035-40.564-83.012-100-88.47-164.4-1.271-15.035-1.06-31.788.587-46.588 3.906-35.012 15.6-68.565 34.283-98.47 21.13-33.812 50.612-61.86 85.365-81.224 30.517-17.012 64.776-27.106 99.176-29.247 2.259-.141 4.706-.282 5.412-.33 3.412-.211 23.035.095 27.294.424z" fill="currentColor"/><path d="M247.512 38.988c-.965.047-4.047.236-6.824.424-27.788 1.976-54 9.035-81.059 21.835-27.811 13.153-51.458 32.33-72.917 59.082-14.8 18.471-26.236 38.612-34.518 60.753-9.482 25.459-13.976 54.753-12.682 82.683 1.976 42.141 13.6 77.717 36.894 112.8 23.176 34.964 55.294 61.6 94.282 78.235 22.612 9.671 44.871 14.941 70.589 16.777 5.411.376 21.741.376 27.294 0 20.776-1.436 38.306-4.777 55.929-10.659 9.318-3.106 17.365-6.471 27.247-11.412 25.13-12.588 45.506-27.671 62.518-46.306 19.035-20.823 32.776-42.212 42.282-65.859 13.388-33.2 18.4-67.223 15.059-102.047-3.835-40.165-18.047-77.059-42.165-109.412-12.706-17.058-22.564-27.27-38.706-40.094-20.447-16.258-43.6-28.894-66.988-36.564-17.976-5.883-35.882-9.177-55.294-10.165-4.141-.212-16.424-.259-20.941-.07zm147.765 72.353c-3.789 11.788-5.389 17.294-6.048 20.777-.729 3.906-.611 15.576.165 16.823.235.377 2.235-.847 6-3.647 3.318-2.47 5.365-4.353 6.635-6.094.565-.753 1.012-1.318 1.012-1.247 0 .071-.353 1.129-.8 2.329-1.906 5.247-5.764 13.53-8.188 17.553-3.247 5.389-6.729 7.153-10.706 5.342-.823-.353-1.6-.8-1.741-.965-.141-.188-.353-.283-.447-.212-.424.259-6.541-7.082-8.871-10.659-3.223-4.917-5.411-11.553-6.188-18.682-.118-1.271-.235-2.753-.235-3.294l.023-1.012 1.741 1.835c3.271 3.412 5.059 6.094 8.965 13.459l1.388 2.588.142-1.882c.211-2.588.964-5.624 2.588-10.376 3.341-9.812 7.553-18.471 11.623-24 1.412-1.906 4.73-5.459 4.918-5.248.071.048-.824 3.036-1.976 6.612zM339.865 151.2c3.059.424 6.423 1.247 10.164 2.471 6.142 1.976 9.953 3.576 22.518 9.317 9.765 4.471 14.259 6.4 18.753 8.047 2.777 1.012 7.6 2.494 9.741 2.965.588.118.071.353-3.412 1.506-10.541 3.506-17.364 7.388-22.635 12.918-5.082 5.364-7.765 11.505-8.917 20.635-.495 3.835-.377 15.153.258 24.941.753 11.153.824 26.541.165 31.882-1.576 12.824-4.635 23.553-9.835 34.306a101.594 101.594 0 01-10.494 17.294c-6.612 8.73-15.906 17.224-24.612 22.495l-.894.541 1.27-2.071c9.671-15.953 17.318-35.27 19.789-49.906 3.129-18.753-.777-31.176-11.506-36.494-3.953-1.976-7.93-2.847-13.812-3.035-10.235-.353-21.953 2.141-42.424 8.965-20.235 6.752-39.247 14.847-62.941 26.752-13.435 6.753-15.082 7.695-29.341 16.965-11.929 7.788-17.435 11.106-23.271 14.024-11.623 5.811-21.882 8.306-31.129 7.576-6.259-.494-12.259-2.094-17.576-4.682-4.259-2.094-6.847-3.93-10.118-7.177-4.165-4.164-5.365-6.211-6.094-10.447-1.624-9.082.682-24.117 3.788-24.894.941-.235 1.624.306 2.894 2.235 4.635 7.153 12.612 10.448 25.2 10.448 8.4 0 16.283-1.177 28.235-4.189 6.871-1.741 11.742-3.223 25.53-7.764 6.47-2.118 14.682-4.8 18.235-5.953 29.106-9.459 51.435-19.906 68.541-32.118 9.6-6.871 17.93-14.471 21.177-19.365 3.576-5.364 6.282-12.47 9.459-24.8 3.953-15.317 5.411-19.906 8.023-25.364 4.565-9.577 10.706-15.106 19.271-17.342 4.87-1.294 10.306-1.529 16-.682zm-200.588-.141c46.211 2.518 93.835 20.023 124.47 45.694 3.741 3.153 6 5.365 7.412 7.271 4.706 6.4 4.165 12.141-1.741 18.376-3.53 3.718-8 6.8-15.436 10.541-13.388 6.777-29.247 12.118-60.87 20.447-10.33 2.73-16 4.306-17.483 4.871-.447.188-.447.165.024-.635 2-3.389 6.024-10.612 5.953-10.683-.047-.023-5.506-.494-12.118-1.012l-12.023-.917-2.094-.941c-3.883-1.694-6.589-3.93-7.812-6.424-.847-1.741-.871-4.612-.071-6.588 1.318-3.224 4.894-7.459 9.012-10.659 4.824-3.741 11.882-7.671 16.235-8.988 1.271-.4 2.306-.8 2.306-.918 0-.094-.164-.141-.353-.047-.588.212-5.247.824-8.329 1.082-5.2.424-14.024.542-19.318.259-14.259-.776-22.447-3.035-25.2-6.894-.47-.635-.47-.706-.117-1.247 1.153-1.741 8.705-4.023 21.435-6.447a1194.92 1194.92 0 0113.765-2.494c10-1.765 14.8-2.729 17.011-3.412 1.459-.447 2.283-1.012 1.883-1.247-.353-.212-2.918-.612-11.883-1.812-26.517-3.529-37.6-6.706-37.6-10.729 0-1.882 3.577-4.377 7.836-5.482 4-1.036 7.929-1.412 16.588-1.647l6.212-.142-3.389-1.388c-10.847-4.494-24.353-10.918-28.305-13.482-1.977-1.294-3.6-2.8-3.318-3.083.07-.047 1.694-.4 3.6-.753 3.976-.752 6.776-.847 13.718-.47zm250.305 39.176c-.117 2.706-.164 5.789-.094 6.847.118 2.142.965 6.447 2.165 11.13.447 1.717.8 3.2.8 3.27 0 .142-7.318-.117-7.459-.258-.212-.236-.8-3.624-1.035-6.236-.235-2.259-.235-3.741 0-6.776.47-6.377.776-7.93 1.835-9.459.494-.729 1.553-1.812 2.424-2.424.823-.611 1.529-1.105 1.553-1.082.023.024-.047 2.259-.189 4.988zm-77.929 79.059c13.271 3.859 17.835 14.518 13.6 31.812-3.318 13.623-12.118 31.247-25.812 51.694-12.917 19.294-30.517 41.2-42.564 52.965-3.742 3.647-4.353 4.164-7.13 5.788-9.623 5.671-26.023 13.859-36.518 18.235-11.152 4.636-18.823 6.918-23.388 6.942-2.4.023-3.529-.377-4.212-1.483-1.247-1.976.306-5.365 7.365-15.929 6.753-10.118 13.835-19.318 27.2-35.294 9.53-11.389 9.271-11.083 9.13-11.224-.142-.141-4.236 3.624-11.93 10.965-11.176 10.659-16.8 15.835-22.941 21.082-16.141 13.741-29.2 21.341-39.835 23.153-1.483.259-2.941.471-3.247.471-.565 0-.565-.024.353-1.247 1.411-1.859 3.623-5.765 8.07-14.259 10.024-19.13 13.294-25.153 18.259-33.436 5.576-9.364 10.776-16.87 15.694-22.705 2.518-3.012 7.341-7.742 9.482-9.365.824-.612 1.342-1.106 1.153-1.106-.188 0-1.717.518-3.364 1.129-7.318 2.777-13.083 4.424-16.212 4.659-2.094.165-2.965-.07-3.529-.917-.73-1.13.329-3.177 4.094-7.859 6-7.506 13.6-14.565 28.353-26.33 3.553-2.823 6.4-5.176 6.282-5.223-.094-.024-1.765.706-3.718 1.67-3.835 1.859-5.976 2.636-8.235 2.942l-1.482.211v-.658c0-.918.917-3.342 1.929-5.177 5.247-9.318 17.082-18.871 32.988-26.588 16.306-7.883 35.2-12.541 62.024-15.271 4.894-.494 5.223-.47 8.141.353zm-114.094 34.753c-.635 1.106-3.224 6-7.106 13.365-12.8 24.376-22.259 35.6-32 38-1.365.329-2.212.376-4.941.235-5.93-.282-10.753.941-22.706 5.812-12.377 5.035-15.318 6.07-17.694 6.141-1.106.047-1.435-.047-1.859-.471-1.694-1.67 1.318-7.176 9.788-18 1.341-1.717 2.4-3.152 2.353-3.223-.047-.047-.965.471-2.023 1.153-4.4 2.823-11.177 5.623-17.036 7.082-10.047 2.471-17.53 1.483-17.53-2.306 0-.941.966-2.8 2.19-4.282 2.987-3.553 11.176-9.506 15.952-11.576 5.671-2.448 11.012-3.459 24.447-4.565 8.777-.73 13.859-1.341 17.365-2.141 8.965-2 24.682-9.106 37.341-16.871 3.482-2.141 9.977-6.447 12.306-8.165.871-.635 1.623-1.153 1.647-1.176.047 0-.165.447-.494.988z" fill="currentColor"/><path d="M330.335 168.588c-5.294 1.294-9.458 5.412-13.341 13.177-2.612 5.223-4.612 10.776-8.659 24.164-4.635 15.412-7.129 21.459-10.588 25.765-.706.871-1.247 1.6-1.223 1.624.023.023 1.129-.165 2.47-.4 15.671-2.824 29.6-1.577 40.165 3.576 2.871 1.388 6.071 3.435 8.188 5.247.894.753 1.671 1.318 1.718 1.247.07-.047 0-3.27-.141-7.129-.989-26.33 3.435-44.824 13.835-58.188 1.765-2.259 1.812-2.047-.894-3.412-2.447-1.247-5.718-2.235-10.565-3.177-3.482-.705-3.341-.729-2.918.612.565 1.718.495 5.482-.141 7.224-.988 2.753-2.823 4.917-5.153 6.047-1.67.823-4.4.8-6.188-.094-3.694-1.789-5.929-6.636-5.2-11.271.165-1.153.565-2.329 1.177-3.553l.941-1.812-1.106.024c-.588 0-1.671.165-2.377.329zm-139.67 12.141c2.776 4.518 4.047 11.224 3.435 18.212-1.153 13.577-7.294 24.988-15.482 28.777l-1.341.611 1.411.165c2.895.33 6.283 1.882 12 5.435 3.389 2.118 5.365 3.13 6.753 3.483.918.235 1.271.188 3.365-.471 12.165-3.882 26.306-10.753 38.118-18.517 5.082-3.365 12.353-8.706 12.353-9.106-.024-.4-5.059-4.189-9.789-7.342-10.87-7.27-22.87-13.035-37.364-17.952-4.377-1.506-11.577-3.718-13.412-4.165l-.682-.165.635 1.035zm109.788 106.236c-12.494 1.529-22.682 3.647-31.882 6.611-5.836 1.906-9.93 3.553-15.765 6.424-7.435 3.647-12.729 6.894-19.647 12.071-4.188 3.129-5.435 4.4-5.953 6.023-.541 1.718-.518 5.435.071 9.318.235 1.67.682 4.494.941 6.235 1.882 12.282-.141 20.141-6.824 26.447-.917.871-1.647 1.671-1.6 1.765.047.117 2.894 2.917 6.33 6.212 9.647 9.247 11.694 11.882 12.117 15.505.471 3.977-1.882 8.071-12.235 21.248-1.624 2.07-2.847 3.788-2.729 3.835 1.082.376 15.694-13.647 27.058-25.953 29.483-31.93 51.647-61.788 58.518-78.824 1.577-3.882 2.212-6.423 2.353-9.411.165-3.342-.212-4.847-1.623-6.4-1.836-1.953-2.001-1.977-9.13-1.106z" fill="currentColor"/></svg>