<svg viewBox="0 0 501 512" fill="none" xmlns="http://www.w3.org/2000/svg"><path fillRule="evenodd" clip-rule="evenodd" d="M496.082 313.587c-4.156-1.825-9.428.811-11.659 5.881-1.622 3.548-1.318 7.401.507 9.936l-53.633 92.565c-1.825-.203-3.853 0-5.779.811l-35.587-35.384a10.81 10.81 0 00.304-2.534c0-5.475-3.345-10.139-8.009-12.065V144.678c2.23-.912 4.157-2.535 5.576-4.461l87.496 45.725c.102.406.203.71.304 1.115 1.623 5.273 6.388 8.517 10.747 7.199 4.36-1.318 6.59-6.793 4.968-12.065-1.419-4.867-5.576-7.908-9.631-7.401l-42.481-81.008.203-.203c3.143-4.46 1.216-11.05-4.259-14.903-3.548-2.434-7.604-3.143-10.949-2.13l-28.997-19.06c-.507-3.853-2.94-7.705-6.793-9.936-3.65-2.129-7.806-2.534-11.254-1.318L309.836 8.72c-.912-4.055-4.866-7.604-10.139-8.415-5.779-1.014-11.152 1.42-12.977 5.678L140.825 31.734c-2.838-2.028-6.995-2.738-11.152-1.42-5.982 1.825-9.835 6.996-8.922 11.964L19.466 145.996c-4.46-.304-9.125 3.143-10.95 8.618-1.622 4.461-.81 9.125 1.623 12.065L4.46 298.988c-3.042 2.433-4.664 6.995-3.853 11.761.913 5.373 4.563 9.327 8.72 10.138l38.628 87.395c-1.623 3.954-.102 9.328 4.055 12.876 3.346 2.94 7.503 4.055 10.95 3.244l93.883 66.104c-.202 4.867 3.954 9.53 9.936 10.747 4.056.913 8.111 0 10.747-2.129l121.461 8.314c2.332 3.345 7.198 5.17 12.267 4.258 4.766-.913 8.517-3.954 9.734-7.604l103.413-60.426c3.346.405 7.199-.913 10.24-3.853 3.549-3.447 4.867-8.111 3.853-11.862l53.025-95.506c3.244-.304 6.59-2.737 8.212-6.489 2.129-4.967.609-10.544-3.65-12.369zM483.916 181.38c1.724-.507 3.65.71 4.36 2.839.608 2.129-.304 4.258-2.028 4.866-1.724.507-3.65-.71-4.36-2.839-.608-2.129.305-4.359 2.028-4.866zM8.111 314.297c-2.13.406-4.258-1.419-4.664-4.055-.405-2.636.913-5.07 3.042-5.374 2.129-.405 4.258 1.42 4.663 4.056.406 2.636-.912 5.069-3.041 5.373zm374.318 70.362a5.236 5.236 0 01-5.273 5.272 5.236 5.236 0 01-5.272-5.272 5.236 5.236 0 015.272-5.272c2.839 0 5.273 2.433 5.273 5.272zM427.14 82.123c1.216-1.724 4.055-1.927 6.184-.406 2.231 1.521 2.941 4.157 1.724 5.982-1.217 1.724-4.055 1.926-6.185.406-2.129-1.521-2.94-4.157-1.723-5.982zm-9.024 1.318c-.506 3.852 1.623 8.313 5.678 11.152 2.231 1.521 4.664 2.433 7.097 2.535l30.416 53.228-62.555-79.588 19.364 12.673zm54.648 93.072l-82.63-45.218c-.507-4.968-3.751-9.125-8.212-10.95l4.359-50.693 86.483 106.861zM379.488 52.721c1.318-2.23 4.461-2.839 6.895-1.42 2.534 1.42 3.447 4.461 2.23 6.692-1.318 2.23-4.461 2.839-6.894 1.42-2.636-1.42-3.549-4.462-2.231-6.692zm-2.332 74.519a5.236 5.236 0 015.273 5.272 5.236 5.236 0 01-5.273 5.272 5.236 5.236 0 01-5.272-5.272 5.236 5.236 0 015.272-5.272zm-1.013-59.514l-4.563 52.924c-2.839 1.318-5.17 3.548-6.488 6.387h-53.634c-2.129-4.461-6.691-7.604-11.963-7.604-.913 0-1.825.101-2.636.304l-50.693-57.08c.202-.71.405-1.42.507-2.13l125.313 3.346c1.115 1.521 2.433 2.84 4.157 3.853zm-163.84 304.969V279.42l1.825-.608 81.92 99.46c-1.116 1.926-1.724 4.157-1.724 6.59 0 5.982 4.055 11.051 9.53 12.673l4.36 61.541c-.811.305-1.622.609-2.332 1.014l-85.874-72.694c.203-.811.203-1.622.203-2.534.101-5.475-3.245-10.139-7.908-12.167zm-5.171 6.692a5.236 5.236 0 015.272 5.272 5.236 5.236 0 01-5.272 5.272 5.236 5.236 0 01-5.272-5.272c0-2.839 2.332-5.272 5.272-5.272zm-3.549-112.741a5.236 5.236 0 015.272-5.273 5.237 5.237 0 015.273 5.273 5.236 5.236 0 01-5.273 5.272c-2.94 0-5.272-2.434-5.272-5.272zm98.751 118.013a5.235 5.235 0 015.272-5.272 5.236 5.236 0 015.272 5.272 5.236 5.236 0 01-5.272 5.272 5.235 5.235 0 01-5.272-5.272zm11.051 81.008c2.94 0 5.272 2.129 5.272 4.663 0 2.636-2.332 4.664-5.272 4.664-2.941 0-5.272-2.129-5.272-4.664 0-2.534 2.331-4.663 5.272-4.663zm-5.881-93.985c-1.115 0-2.129.101-3.143.405l-83.136-100.879c.507-1.419.811-2.839.811-4.461 0-7.3-5.881-13.18-13.181-13.18-7.299 0-13.18 5.88-13.18 13.18 0 4.765 2.535 8.922 6.388 11.254v94.796c-3.346 1.419-5.982 4.157-7.199 7.604h-52.923c-1.217-3.447-3.853-6.185-7.199-7.604V144.678c3.245-1.419 5.881-4.055 7.097-7.401h45.928c1.927 4.968 6.692 8.415 12.268 8.415 1.115 0 2.129-.101 3.143-.406l81.717 98.953a12.47 12.47 0 00-.912 4.765c0 7.3 5.88 13.181 13.18 13.181s13.18-5.881 13.18-13.181c0-4.562-2.332-8.516-5.779-10.848v-93.478c3.244-1.419 5.678-4.055 6.996-7.3h52.923c1.318 3.346 3.853 5.982 7.097 7.401v228.018c-3.345 1.419-5.982 4.157-7.198 7.604h-44.711c-1.623-5.171-6.489-8.719-12.167-8.719zM38.425 267.862l45.827-141.636c1.014-.507 2.028-1.217 3.041-2.028l28.997 8.719a12.995 12.995 0 008.009 11.761v223.354l-85.772-86.584c1.115-1.926 1.825-4.157 1.825-6.692.101-2.534-.609-4.866-1.927-6.894zm38.831-155.121c1.724-2.027 4.461-2.433 6.084-1.013 1.622 1.419 1.52 4.156-.305 6.184-1.723 2.028-4.46 2.433-6.083 1.014-1.52-1.419-1.42-4.258.304-6.185zm52.316 266.646a5.236 5.236 0 015.272 5.272 5.236 5.236 0 01-5.272 5.272 5.236 5.236 0 01-5.273-5.272c0-2.839 2.332-5.272 5.273-5.272zm-5.171-246.875c0-2.839 2.332-5.171 5.171-5.171 2.838 0 5.17 2.332 5.17 5.171 0 2.839-2.332 5.17-5.17 5.17-2.839 0-5.171-2.331-5.171-5.17zm70.565 0a5.235 5.235 0 015.272-5.272 5.236 5.236 0 015.272 5.272 5.236 5.236 0 01-5.272 5.272c-2.941 0-5.272-2.433-5.272-5.272zm37.107-60.73c.507.1 1.014.1 1.419.1 2.129 0 4.056-.506 5.779-1.317l48.97 55.154c-1.318 2.028-2.028 4.359-2.028 6.995 0 5.475 3.346 10.24 8.212 12.167v91.349c-.709.202-1.419.405-2.129.709l-80.703-97.736a12.933 12.933 0 001.723-6.489c0-4.359-2.129-8.212-5.474-10.645l24.231-50.288zm-3.853-15.006a5.236 5.236 0 015.272-5.272 5.235 5.235 0 015.272 5.272 5.235 5.235 0 01-5.272 5.272c-2.838 0-5.272-2.332-5.272-5.272zm71.376 80.906c-2.839 0-5.171-2.331-5.171-5.17s2.332-5.171 5.171-5.171c2.839 0 5.171 2.332 5.171 5.171 0 2.839-2.332 5.17-5.171 5.17zm2.94 111.12a5.236 5.236 0 01-5.272 5.272 5.236 5.236 0 01-5.272-5.272 5.235 5.235 0 015.272-5.272c2.94 0 5.272 2.433 5.272 5.272zM293.716 7.3c.405-2.13 2.839-3.447 5.475-3.042 2.636.406 4.461 2.535 4.055 4.664-.406 2.13-2.839 3.447-5.373 3.042-2.738-.507-4.563-2.535-4.157-4.664zm-.203 11.355c.811.304 1.724.608 2.737.71 3.954.71 7.604-.203 10.24-2.23l63.772 35.484-.304.913-120.244-3.244 43.799-31.633zm-14.498-2.23l-41.264 29.807c-1.318-.405-2.738-.71-4.157-.71-4.259 0-8.01 2.028-10.443 5.07L161.61 37.209l117.405-20.784zM130.18 34.167c2.535-.811 5.171.304 5.779 2.332.608 2.028-.913 4.36-3.447 5.17-2.535.812-5.07-.303-5.779-2.331-.71-2.13.912-4.36 3.447-5.17zm-1.42 15.208c2.028.304 4.259.203 6.489-.406 3.143-1.013 5.779-2.94 7.3-5.17l77.763 16.83c.304 2.332 1.217 4.36 2.636 6.185L197.5 119.737c-4.157.811-7.604 3.549-9.429 7.3h-46.637c-2.129-4.461-6.692-7.604-11.964-7.604-3.65 0-6.996 1.521-9.327 3.853l-28.084-8.415c.101-1.927-.203-3.853-1.116-5.475l37.817-60.02zM98.953 77.46L81.21 105.644a13.9 13.9 0 00-7.198 4.36c-1.926 2.129-3.042 4.664-3.346 7.097L40.96 136.77l57.993-59.311zM26.766 160.9c.304-.913.507-1.825.71-2.738l45.32-30.111-42.38 130.991-6.894-92.87a13.26 13.26 0 003.244-5.272zm5.576 113.755c0 2.636-1.926 4.867-4.36 4.867-2.433 0-4.359-2.13-4.359-4.867 0-2.636 1.926-4.765 4.36-4.765 2.331-.101 4.36 2.129 4.36 4.765zm-20.176-119.94c.913-2.534 3.245-3.954 5.273-3.244 2.027.71 2.94 3.346 2.129 5.88-.913 2.535-3.245 3.954-5.273 3.245-2.027-.811-2.94-3.346-2.129-5.881zm4.765 61.643l3.853 51.403c-1.318 2.028-2.129 4.461-2.129 7.097 0 2.23.507 4.258 1.52 5.982l-6.488 13.585 3.245-78.067zm.71 101.082c1.927-2.535 2.839-6.185 2.13-10.037-.102-.507-.203-.913-.305-1.42l7.3-15.208 18.554 89.322-27.68-62.657zm42.582 100.778c-1.419 1.622-4.156 1.521-6.184-.304-2.028-1.724-2.433-4.461-1.014-6.083 1.42-1.623 4.258-1.521 6.184.304 2.028 1.723 2.434 4.461 1.014 6.083zm.609-14.093L38.324 295.946l80.501 81.21c-1.42 2.028-2.332 4.36-2.434 6.996l-52.01 22.102a14.356 14.356 0 00-3.55-2.129zm8.516 13.89c.203-.912.203-1.825.102-2.737l50.49-21.494c2.433 2.534 5.779 4.157 9.632 4.157.608 0 1.216-.102 1.824-.102l28.591 84.049-90.639-63.873zm102.907 76.547c-.507 2.129-2.94 3.345-5.576 2.838-2.636-.608-4.36-2.737-3.954-4.866.405-2.129 2.94-3.346 5.576-2.839 2.636.608 4.36 2.839 3.954 4.867zm-1.926-14.296l-29.909-87.902c.405-.507.71-1.115 1.014-1.723h53.836c1.014 2.028 2.534 3.852 4.461 5.069l-29.402 84.556zm39.642-82.63c1.521-.304 2.94-.912 4.258-1.723l84.455 71.578-119.535 18.858 30.822-88.713zm88.713 100.88l-90.741-6.185 94.593-14.904a13.847 13.847 0 005.272 3.549l-2.129 12.268c-3.143.912-5.677 2.838-6.995 5.272zm11.963 9.226c-2.636.507-5.069-.811-5.475-2.94-.405-2.13 1.42-4.259 4.056-4.664 2.636-.507 5.069.811 5.475 2.94.405 2.028-1.42 4.157-4.056 4.664zm7.807-12.572c-.71-.608-1.521-1.115-2.433-1.622l2.23-12.876c3.751-1.521 6.692-4.664 7.503-8.415l75.33-25.448-82.63 48.361zm99.257-64.786l-94.897 32.038c-1.217-1.216-2.637-2.332-4.36-3.041l-4.461-63.164c2.23-1.318 4.157-3.244 5.272-5.576h45.827c2.129 4.359 6.691 7.401 11.862 7.401 2.534 0 4.968-.71 6.995-2.028l33.965 33.762c0 .203-.102.405-.203.608zm15.005 5.779c-1.926 1.825-4.664 2.129-6.184.608-1.521-1.52-1.217-4.258.709-6.184 1.927-1.825 4.664-2.129 6.185-.608 1.521 1.622 1.216 4.359-.71 6.184zm63.468-111.525c-.913 2.028-3.042 3.143-4.664 2.332-1.724-.709-2.332-2.94-1.419-4.968.912-2.027 3.041-3.041 4.663-2.331 1.724.709 2.332 2.94 1.42 4.967z" fill="currentColor"/></svg>