<svg viewBox="0 0 18 12" xmlns="http://www.w3.org/2000/svg" fill="currentColor"><path d="M13.782.029L12.276.74a.02.02 0 00-.018.018c-.009.009-.009.018-.009.018v.027c0 .009 0 .018.01.027l2.289 4.813c.847 1.794.622 3.155-.667 3.768-1.046.496-1.947.153-2.65-1.055L8.527 2.652C7.427.335 5.93-.278 4.164.57c-1.153.55-1.82 1.523-1.811 2.767 0 .018-.01.027-.01.045a.124.124 0 01-.036.027c-.018 0-.027 0-.045-.01-.009-.008-.027-.017-.027-.026L1.622 2.11a.02.02 0 00-.018-.018c-.009-.01-.018-.01-.018-.01H1.56c-.009 0-.018 0-.027.01l-1.505.712c-.009-.009-.018.009-.027.027 0 .01 0 .027.009.045l4.146 8.752a.07.07 0 00.036.036c.018.01.036.01.045 0l1.506-.712a.02.02 0 00.018-.018c.009-.009.009-.018.009-.018v-.027c0-.009 0-.018-.01-.027L3.543 6.176c-.901-1.91-.73-3.29.658-3.948 1.064-.505 1.893-.162 2.632 1.127v.009L9.51 9.015c1.037 2.182 2.641 2.93 4.336 2.118 1.307-.621 1.857-1.559 1.82-2.785 0-.018 0-.027.01-.045a.112.112 0 01.036-.027c.018 0 .027 0 .045.01.009.008.027.017.027.026l.595 1.262a.02.02 0 00.018.018.028.028 0 00.018.01h.027c.009 0 .018 0 .027-.01l1.505-.712a.02.02 0 00.018-.018C18 8.853 18 8.844 18 8.844v-.027c0-.009 0-.018-.009-.027L13.845.038a.07.07 0 00-.036-.036c-.018-.01-.01.018-.027.027z"/></svg>