<svg viewBox="0 0 410 540" fill="none" xmlns="http://www.w3.org/2000/svg"><path d="M38.107 218.151c1.547-6.186 8.143-9.541 13.99-7.309l.727.309 332.147 155.471-25.777-128.901c-1.091-5.457 2.237-10.772 7.515-12.239l.766-.183c5.458-1.091 10.773 2.238 12.24 7.515l.182.767 29.88 149.393c1.646 8.234-6.469 14.888-14.113 11.937l-.714-.305L55.48 235.709 21.243 372.666c-1.35 5.399-6.634 8.778-12.03 7.844l-.772-.163c-5.4-1.35-8.778-6.634-7.844-12.031l.163-.771 37.348-149.394z" fill="currentColor"/><path d="M313.862 153.31L204.726.781 97.647 153.113l-9.419 35.972 258.601 125.13-32.967-160.905zM204.874 37.28l89.199 124.663 23.499 114.662-204.525-98.969 4.053-15.487 87.774-124.87zm150.209 377.139L78.199 287.843 43.87 443.754l160.917 95.48 163.408-96.423-13.111-28.392zM93.195 317.913l245.997 112.456 1.827 3.958-136.203 80.369-137.047-81.313 25.426-115.47z" fill="currentColor"/><path d="M215.768 19.03v126.984h-21.113V19.029h21.113zm19.002 352.299l20.434 5.313-39.776 152.982-20.434-5.313 39.776-152.982z" fill="currentColor"/><path d="M161.301 330.197l46.686 186.743-20.483 5.121-46.686-186.743 20.483-5.121zm53.488-211.03l65.77 141.924-19.156 8.878-65.77-141.925 19.156-8.877z" fill="currentColor"/><path d="M195.591 119.255l19.237 8.702-40.55 89.636-19.236-8.702 40.549-89.636z" fill="currentColor"/></svg>