<svg viewBox="0 0 511 496" fill="none" xmlns="http://www.w3.org/2000/svg"><path d="M254.673 495.965c133.586 0 234.776-89.507 255.768-206.615H396.474c-17.035 62.185-69.911 107.706-140.451 107.706-70.027 0-123.578-45.847-141.335-107.706H0c20.224 117.527 120.553 206.615 254.673 206.615zM255.3 117.6c32.474 0 58.8-26.326 58.8-58.8S287.774 0 255.3 0s-58.8 26.326-58.8 58.8 26.326 58.8 58.8 58.8z" fill="currentColor"/><path d="M108.334 289.35v-1.164c0-83.619 59.904-151.878 146.27-151.878 86.388 0 147.549 69.423 147.688 153.042H108.334z" fill="currentColor"/></svg>