<svg viewBox="0 0 64 64" xmlns="http://www.w3.org/2000/svg" fill="currentColor"><path d="M63.519 31.36c-1.792-1.722-3.486-3.54-5.278-5.263a1.446 1.446 0 01-.447-1.723c.737-2.489 1.376-4.978 2.08-7.466.192-.607.094-.86-.576-1.022-2.559-.637-5.085-1.403-7.678-2.043-.736-.158-1.024-.542-1.183-1.213-.64-2.489-1.343-4.913-1.951-7.402-.193-.735-.416-.893-1.153-.67-2.495.7-5.02 1.338-7.516 1.978-.416.128-.8.223-1.183-.158-2.049-2.102-4.192-4.112-6.174-6.314A2.827 2.827 0 0131.787 0a.437.437 0 01-.223.415 478.39 478.39 0 00-5.727 5.678 1.31 1.31 0 01-1.504.384c-2.496-.701-4.99-1.339-7.486-2.043-.703-.192-.99-.064-1.183.671-.64 2.489-1.376 4.977-2.016 7.466-.066.522-.47.94-.99 1.021-2.526.638-4.99 1.34-7.517 1.946-.831.192-1.055.479-.8 1.34.736 2.457 1.311 4.976 2.014 7.465a1.27 1.27 0 01-.385 1.5c-1.886 1.818-3.712 3.702-5.598 5.52-.511.479-.48.766 0 1.244 1.856 1.818 3.647 3.67 5.5 5.487.458.338.63.942.417 1.467-.704 2.458-1.312 4.913-2.049 7.371-.256.86-.128 1.214.801 1.436 2.495.607 4.926 1.34 7.421 1.946.737.159 1.025.543 1.184 1.214.64 2.519 1.342 4.977 1.984 7.496.16.638.385.799 1.024.607 2.465-.702 4.957-1.275 7.422-1.98a1.601 1.601 0 011.822.51c1.759 1.818 3.55 3.574 5.312 5.392.544.574.862.607 1.44.03 1.758-1.85 3.614-3.604 5.406-5.455a1.482 1.482 0 011.728-.479c2.464.735 4.926 1.34 7.39 2.043.704.192.991.064 1.184-.67.608-2.458 1.376-4.914 1.984-7.371.16-.735.51-1.022 1.217-1.18 2.495-.607 4.926-1.309 7.421-1.916.737-.158.96-.445.737-1.213-.704-2.489-1.343-5.041-2.049-7.56a1.271 1.271 0 01.385-1.501c1.823-1.754 3.615-3.605 5.47-5.359.668-.635.604-.955-.004-1.561zm-47.44-1.433v.008a1.962 1.962 0 01-1.984 1.94h-1.984c-.832 0-1.664 0-2.526.03-.447 0-.575-.158-.48-.606.223-.924.446-1.659 1.663-1.85 1.569-.224 3.07-.766 4.606-1.215.544-.128.767-.064.703.51-.028.384.002.799.002 1.183zm-.095 17.407c-1.319-1.24-2.5-2.384-3.711-3.528 1.024-.574 2.015-1.116 2.975-1.69.544-.32.736-.256.736.415-.03 1.557 0 3.15 0 4.803zm-3.55-4.199c-.385.223-.48.128-.575-.256-.287-1.15-.639-2.296-.926-3.446-.065-.256-.095-.573.159-.735.256-.158.446.064.639.159 1.312.735 2.623 1.5 4.128 2.33-1.217.67-2.339 1.277-3.425 1.948zm-2.43-17.102c-.322.798-1.44.924-2.175 1.436-.737-1.882-.737-1.882.544-3.19.896-.894 1.792-1.754 2.688-2.647a1.6 1.6 0 01.257-.128c-.452 1.595-.74 3.126-1.315 4.529zm1.917-4.88c.064-.287.287-.223.447-.128 1.088.637 2.143 1.275 3.357 1.979a198.873 198.873 0 01-5.085 2.84c.45-1.693.865-3.193 1.28-4.691zm-3.358 8.39c-.352 0-.352-.351-.416-.574-.351-1.052-.287-1.116 1.633-1.915-.18.735-.352 1.34-.498 1.915a.668.668 0 01-.719.574zm-1.92.543c-1.217.32-2.431.606-3.648.893l-.095-.128 4.416-2.583c.736 1.372.703 1.467-.673 1.818zm.93.256c.831-.192.574.67.736 1.021.16.35-.064.51-.447.51H2.646c0-.064-.03-.16-.03-.223 1.63-.415 3.26-.894 4.956-1.308zm1.252 3.018c.318 1.206.637 2.412.999 3.712-2.426-1.177-2.113-.514-.999-3.712zm-.824 3.426c.8-.031 2.238 1.308 2.238 2.043-.205.543-.639 1.052-1.055 1.628-.03 0-.064.03-.095.03-.32.065-1.886-1.85-1.822-2.2.03-.065.03-.129.064-.193.22-.448-.033-1.278.67-1.308zm.703 5.264c.321-.48.545-.671.991-.128.414.47.85.916 1.312 1.339.16.192.48.35.064.606-1.822 1.022-3.678 2.074-5.501 3.096a.697.697 0 01-.128-.159c1.073-1.595 2.161-3.16 3.262-4.754zm1.78-2.425c.287 1.022.544 2.043.831 3.126-2.08-1.467-2.143-1.659-.832-3.126zm.767-2.202c-.352.543-.737.32-.863-.128a127.014 127.014 0 01-1.247-4.593c-.16-.51.287-.384.544-.384h5.085c-1.25 1.82-2.37 3.48-3.52 5.105zm4.541-9.762c-1.951.51-3.902 1.022-5.95 1.564.128-1.85.767-3.062 2.464-3.733 1.278-.509 2.43-1.339 3.807-2.104v3.828a.4.4 0 01-.321.445zm.287-9.796v4.755c-1.183-.67-2.238-1.308-3.262-1.915-.352-.192-.447-.384-.095-.735a97.522 97.522 0 002.526-2.52.565.565 0 01.703-.191c.257.097.128.384.128.606zm-3.55 1.309c.321-2.266.48-2.425 2.144-1.915-.737.67-1.471 1.308-2.144 1.915zm3.296-12.282c.065.03.16.03.224.064V11.2c0 1.753 0 1.753-1.951 2.01.575-2.138 1.15-4.243 1.727-6.317zm-2.112 7.625c.128-.83.767-.735 1.311-.958.927-.384 1.12.03 1.025.83v.384c0 1.723-.863 2.36-2.465 1.787-.192-.064-.32-.128-.287-.32.128-.576.32-1.15.416-1.723zm-7.358 1.308c2.285-.574 4.575-1.18 6.975-1.787-.192.765-.352 1.372-.51 2.01-.129.51-.512.414-.863.384-1.856-.159-3.743-.287-5.63-.446a.322.322 0 00.028-.161zm5.63 1.083c.447.03.544.192.447.637-.575 2.617-.545 2.617-2.816 1.275-1.184-.701-2.4-1.403-3.712-2.168 2.148-.19 4.13.161 6.081.256zm-6.941.161c-.031-.095-.031-.159-.064-.256.095 0 .159.03.256.03 1.92 1.117 3.871 2.267 5.853 3.383.193.128.48.192.16.543-1.312 1.339-2.59 2.711-3.872 4.083a1.74 1.74 0 01-.352-.158c-.67-2.553-1.309-5.072-1.981-7.625zm1.663 8.869c.095.095.193.128.193.159.446 1.628.446 1.628-1.025 2.458-1.088.637-2.207 1.244-3.421 1.915a302.398 302.398 0 014.253-4.532zm-5.18 6.38c2.048 0 4.063 0 6.11-.03.544 0 .767.094.544.734-.321.86-.288 2.233-.863 2.52-.672.35-1.6-.702-2.4-1.117-1.153-.607-2.272-1.308-3.422-1.946.01-.053.023-.107.03-.16zm.798 1.406l.031-.031c1.633.607 3.04 1.628 4.541 2.458.416.223.321.799-.287 2.01-1.469-1.473-2.942-2.876-4.285-4.437zm4.605 5.645c.095.03.193.03.224.064 1.663 1.595 1.663 1.595.352 3.477-.704 1.021-1.44 2.01-2.144 2.998l-.16-.128 1.728-6.411zm-1.95 8.518c2.238-1.275 4.253-2.425 6.302-3.574.256-.159.385-.128.48.192.48 1.818.96 3.605 1.504 5.615a413.79 413.79 0 00-8.286-2.233zm10.922 9.317c-.064 0-.128.03-.192.03-.575-2.073-1.12-4.147-1.694-6.285h-.013c.223-.03.287-.064.364-.03 1.535.35 1.535.35 1.535 1.945v4.34zm.052-6.508c-.224.03-.257.064-.257.064-1.407-.095-2.174-.8-2.367-2.233-.192-1.213-.575-2.36-.703-3.638 1.024 1.022 2.11 1.979 3.04 3.095.67.797.03 1.787.287 2.712zm.125-15.313l-.095 4.467c0 .574-.094.83-.703.446-1.088-.638-2.174-1.275-3.296-1.851-.48-.256-.48-.479-.193-.894a253.48 253.48 0 003.327-4.818.673.673 0 01.737-.384c.447.064.223.415.223.637.034.8 0 1.598 0 2.397zm27.512-15.06c-.96-.637-2.144-.893-2.56-2.138a1.247 1.247 0 01.031-1.116 136.544 136.544 0 002.4-4.117c.321-.542.511-.445.927-.094.703.606.96 1.213.64 2.137-.542 1.754-.958 3.541-1.438 5.328zm4 24.056c0 2.648 0 2.648-2.655 2.425-1.279-.095-2.59-.223-3.871-.32-.321-.03-.575-.064-.673-.445-.095-.385.257-.415.48-.543 2.015-1.117 4-2.233 5.981-3.382.609-.351.801-.192.737.478-.033.607 0 1.18 0 1.787zm-11.55 8.07c-1.089-.798-2.336-1.403-3.584-2.137a150.899 150.899 0 003.296-1.882.445.445 0 01.609.064c1.407 1.403 2.847 2.808 4.318 4.275-.193.16-.224.192-.224.192-1.568.702-3.006.574-4.415-.512zm1.312 1.342c-1.664.415-3.135.83-4.606 1.214-.351.094-.48 0-.48-.385v-3.827a376.215 376.215 0 015.086 2.998zm-16.25-1.564c-.446-.128-.223-.384-.095-.607.832-1.436 1.694-2.873 2.59-4.434.927 1.945 1.792 3.732 2.624 5.52.32.637 0 .86-.51.734-1.539-.35-3.074-.799-4.609-1.213zm4.223 1.628c-2.11 1.403-2.174 1.372-4.03-1.086 1.373.382 2.654.702 4.03 1.086zm-4.85-9.573c.032-.159.13-.32.322-.192.672.415 1.47.607 1.95 1.308.48.702.673 1.403.065 2.233a27.258 27.258 0 00-1.951 3.349c-.48.924-.863.86-1.407.128-.223-.32-.672-.479-.575-.988.526-1.944 1.04-3.892 1.597-5.838zm-3.947-30.5a.64.64 0 01.578-.766c.703-.128 1.406-.32 2.11-.51a.72.72 0 01.256 0 .324.324 0 00-.128.16c-.896.86-1.792 1.753-2.816 2.744 0-.607.03-1.116 0-1.628zm.223 2.235c1.153-1.214 2.336-2.394 3.614-3.702.991 1.723 1.856 3.254 2.88 4.977-2.271-.159-4.35-.287-6.396-.51-.609-.064-.355-.512-.098-.765zm10.907-4.498c1.184.924 2.59 1.595 4.03 2.424-1.152.67-2.174 1.244-3.198 1.851-.257.159-.446.256-.703 0-1.407-1.436-2.847-2.84-4.351-4.34 1.537-.606 2.816-1.021 4.222.065zm-.862-1.022c1.633-.445 3.07-.83 4.541-1.214.352-.094.544-.064.544.385v3.796c-1.727-.99-3.327-1.945-5.085-2.967zm3.884 13.367c-.321-.384-.832.03-1.217.128-1.6.384-1.568.415-2.4-1.021-.703-1.275-1.407-2.553-2.174-3.797-.288-.51-.257-.766.287-.989.321-.128.609-.286.896-.414.673-.287 1.278-1.053 1.92-.925.737.16 1.184 1.022 1.759 1.565 1.779 1.787 3.537 3.605 5.362 5.328a3.67 3.67 0 011.184 2.424c-2.067-.35-4.095-.67-6.097-1.052 0-.064-.031-.128 0-.192.095-.384.832-.61.48-1.055zM16.56 19.811l.012-.32c0-2.266 0-2.266 2.208-2.104 1.407.094 2.847.256 4.254.35.32.031.595.031.69.415.095.384-.257.415-.447.543l-6.045 3.446c-.64.384-.703.095-.672-.445.033-.64 0-1.245 0-1.885zm2.015 2.138c1.694-.83 3.262-1.787 4.862-2.745.608-.384.831-.192 1.119.351a70.486 70.486 0 002.464 4.307c.352.573.257.734-.385.893-3.04.766-6.079 1.595-9.115 2.425-.673.192-.927.128-.832-.607.03-.446 0-.924 0-1.66-.544-1.494.45-2.293 1.887-2.964zm-1.982 9.253c.03-.415.095-.86.095-1.275.03-2.01.03-2.01 1.92-2.52 2.464-.637 4.926-1.274 7.39-1.979.991-.286 1.952-.414 3.007.095a268.885 268.885 0 00-3.936 4.785c-.446-.32-.256-1.15-.8-1.085-.48.064-.352.765-.511 1.18-.116.31-.2.63-.257.958l-.003.025a.666.666 0 01-.765.548c-1.822-.03-3.648-.064-5.47-.03-.575 0-.734-.223-.67-.702zm6.813-20.323a.667.667 0 01-.832-.351c-.223-.351.128-.479.288-.638.767-.83.8-.83 2.559.446-.737.192-1.407.32-2.015.543zm-.724-1.562c-.416.607-.801.637-1.343.03-.8-.893-1.694-1.723-2.559-2.583.03-.064.064-.159.095-.223 1.491.574 2.739 1.595 4.094 2.266.034.284-.19.348-.287.51zm1.204 3.285c1.217 1.18 2.4 2.36 3.712 3.638-.598.394-1.217.758-1.856 1.085a1.852 1.852 0 01-2.4-.83c-.832-1.466-1.664-2.903-2.496-4.37 1.823-.734 1.823-.704 3.04.477zm-7.39 20.546c0-.607.094-.86.8-.83 1.728.064 3.456.03 5.183.03.447 0 .704.065.544.608-.926 3.348-1.822 6.7-2.752 10.146-.575-.35-1.055-.607-1.504-.86-2.367-1.34-2.367-1.34-2.302-4.02.064-1.692.064-3.382.03-5.074zm7.647 13.943c-.16-.287-.257-.543.03-.799.224-.223.416 0 .609.095 2.207 1.275 4.382 2.583 6.684 3.925a244.064 244.064 0 00-3.837 2.265c-.416.287-.704.384-.96-.222-.799-1.754-1.664-3.51-2.526-5.264zm-.609-2.074c-.257-.159-.48-.35-.737-.51-.672-.478-1.791-.573-1.95-1.339-.16-.701.32-1.564.544-2.36.639-2.297 1.311-4.562 1.856-6.892a3.85 3.85 0 011.568-2.425c.64 1.754 1.248 3.477 1.951 5.105.193.574.16.8-.51.671-.224-.03-.512-.128-.64.128s.16.384.288.574c.446.606 1.47.957 1.406 1.753-.064.671-.672 1.309-1.055 1.98a96.316 96.316 0 00-1.792 3.095c-.256.476-.513.537-.929.22zm3.774-8.04c-.673-1.817-1.343-3.668-2.015-5.486a.823.823 0 01.159-.988c1.312-1.5 2.59-3.031 3.838-4.562a.775.775 0 01.862-.32c1.92.35 3.871.701 5.789 1.021.431.041.79.348.896.766.639 1.753 1.278 3.54 1.95 5.297a.975.975 0 01-.192 1.15c-1.247 1.436-2.464 2.933-3.712 4.403-.223.256-.385.573-.737.415-2.11-.351-4.127-.702-6.173-1.053-.409-.069-.537-.325-.665-.642zm6.654 2.17c0 .542-.863.798-.511 1.213.351.415.96.03 1.376-.159 1.119-.51 1.694-.095 2.207.924.64 1.34 1.44 2.617 2.208 3.892.32.543.257.83-.32 1.052-.373.151-.735.32-1.09.51-1.758.957-1.758.957-3.134-.415-1.822-1.818-3.614-3.638-5.437-5.423-.703-.701-1.376-1.403-1.376-2.647 2.046.35 4.061.702 6.077 1.052zm6.75 14.26a.7.7 0 01.863.32c.193.32-.159.445-.32.637-.768.83-.768.83-2.526-.445.736-.192 1.376-.32 1.984-.512zm-.415-1.562c-1.024-1.18-2.174-2.232-3.296-3.318-.447-.445-.416-.637.16-.893.703-.32 1.247-.958 2.143-.766.767-.192 1.152.256 1.504.924a92.927 92.927 0 002.208 3.861c.223.415.192.574-.288.766-.96.381-1.697.286-2.43-.574zm5.257-9.54c-1.663.83-3.262 1.818-4.862 2.745-.51.287-.767.32-1.088-.256a78.2 78.2 0 00-2.56-4.498c-.32-.51-.128-.67.352-.799 3.135-.799 6.238-1.595 9.342-2.458.608-.159.8-.064.737.543-.031.479 0 .988 0 1.754h-.013c.544 1.5-.437 2.299-1.908 2.97zm2.003-9.124c-.031.384-.095.799-.095 1.18-.031 2.01-.031 1.98-2.015 2.52-2.4.637-4.798 1.274-7.198 1.945-1.025.287-2.049.51-3.104-.094l3.966-4.722c.447.287.223 1.15.768 1.053.544-.095.446-.83.575-1.275.416-1.437.416-1.437 1.886-1.437 1.471 0 2.976.031 4.48 0 .642 0 .8.254.737.83zm-6.718-2.458c-.224.894-.704 1.467-1.471 2.074-.737-1.98-1.407-3.861-2.11-5.743.446-.32 1.132.256 1.278-.287.16-.414-.48-.701-.8-1.021-1.056-1.086-1.056-1.052-.288-2.394.736-1.244 1.504-2.424 2.143-3.702.385-.766.768-.702 1.343-.256.185.148.377.287.575.415.575.445 1.632.573 1.792 1.244.159.67-.288 1.467-.48 2.202-.637 2.49-1.374 4.98-1.982 7.468zm2.207-18.664c.416.095.224.384.095.607a468.85 468.85 0 01-2.59 4.434c-.96-1.946-1.792-3.764-2.623-5.52-.288-.607-.031-.86.51-.735 1.538.354 3.073.799 4.608 1.214zm-4.189-1.66c2.303-1.402 1.407-1.722 4.094 1.117a133.295 133.295 0 01-4.094-1.116zm1.15 6.7c.128.257.288.544.03.83-.32.351-.543 0-.767-.128-2.174-1.244-4.318-2.519-6.59-3.86 1.44-.83 2.783-1.595 4.064-2.361.416-.256.575-.095.737.256.832 1.754 1.694 3.51 2.526 5.264zm4.574-5.135c-.446 0-.256-.35-.128-.573.801-1.373 1.6-2.712 2.4-4.084a.757.757 0 01.257.064c-.403 1.5-.768 3.062-1.278 4.562-.226.733-.801.031-1.25.031zm1.6-4.498c-.768 1.339-1.569 2.68-2.336 4.02-.863-.894-1.633-1.724-2.465-2.584 1.823-1.052 3.679-2.297 5.663-3.254-.03.732-.541 1.244-.862 1.818zm-5.712-.51c1.694-.479 3.391-.893 5.119-1.339l.095.192h-.013c-1.522.86-3.04 1.851-4.593 2.648-.639.32-1.055-.51-1.311-1.022-.257-.512.446-.417.703-.479zm-1.805.415c.704.223 1.055.894 1.569 1.308a.27.27 0 01-.064.256c-.678.456-1.397.85-2.144 1.18-.544.193-1.856-1.402-1.694-1.979 0-.094.16-.192.257-.222.67-.192 1.34-.354 2.076-.543zm-.415-.479a.085.085 0 00-.031.064c-2.11.735-2.144.735-3.104-1.275-.51-1.085-1.024-2.138-1.568-3.318.8.318 4.192 3.636 4.703 4.53zm-5.853-5.105c.095 0 .159-.03.256-.03a430.328 430.328 0 002.59 5.391c.16.32.193.51-.223.671-2.495.988-2.623.924-2.623-1.69V1.787zm.575 7.53c1.119.35 2.238.637 3.357.924.257.064.511.128.575.446.031.192-.095.286-.256.384-1.407.798-2.783 1.628-4.318 2.519V9.796c-.03-.513.162-.64.642-.48zm-.082 5.294a241.838 241.838 0 006.173 3.639c.511.286.545.509.257.988-.927 1.467-1.758 2.967-2.624 4.467-.223.415-.385.607-.831.16a1771.71 1771.71 0 00-7.517-7.339h-.012c1.278-.734 2.336-1.308 3.37-1.945.36-.246.837-.233 1.184.03zm-6.654-8.07c1.81-1.85 3.601-3.702 5.393-5.55.095.064.16.128.257.192l.013 6.73c0 .48-.193.608-.609.48-1.727-.48-3.486-.958-5.311-1.468a2.33 2.33 0 01.257-.384zm-.398.925c1.6.414 3.232.83 4.831 1.275v.222c-1.278.351-2.59.702-3.902 1.086-1.088.256-1.728-.67-2.56-1.052-.063-.031-.094-.192-.094-.256.03-.351 1.373-1.37 1.725-1.275zm-1.12-.384c-.96 1.564-1.054 1.595-2.43.765-1.184-.735-2.496-1.339-3.584-2.232 2.092.256 4.012 1.085 6.015 1.467zm-6.558-.318c1.088 1.086 2.207 2.169 3.232 3.318.544.638-.352.766-.545 1.117-.159.286-.385.32-.575-.031-.8-1.403-1.599-2.775-2.4-4.179.098-.066.193-.16.288-.225zm-1.63 3.19c-.064-1.339-.031-2.647-.031-3.989a.476.476 0 00.192-.064 736.123 736.123 0 013.07 5.392c.224.351.16.543-.256.607-.03 0-.064.03-.095.03-.896.224-2.015.894-2.624.574-.706-.381-.225-1.656-.256-2.55zM16.4 46.771c.16-1.66.031-3.35.031-5.233 1.248.734 2.303 1.339 3.358 1.945.352.223.257.48.159.766-.51 1.851-.99 3.702-1.535 5.743-.924-1.02-2.172-1.562-2.013-3.221zm.129 2.107c.51.51.99.988 1.47 1.436.288.256.193.51.096.799-.129.445-.447.128-.64.095-1.214-.256-1.342-.512-.926-2.33zm-.098 8.36c-.03 0-.064-.032-.095-.032 0-1.881 0-3.733-.03-5.584.094-.03.159-.094.192-.094 1.407.286 1.376.32 1.024 1.659-.354 1.336-.737 2.708-1.09 4.05zm.578-.257c.416-1.5.8-3.031 1.247-4.529.257-.924.896-.159 1.279-.128.639.095.192.51.064.735-.673 1.18-1.343 2.33-2.049 3.51-.125.19-.159.443-.541.412zm.03 1.562c1.089-1.915 2.175-3.861 3.263-5.807.991.799 1.728 1.69 2.59 2.583-1.984 1.117-3.807 2.33-5.788 3.288l-.064-.064zm1.44.064c1.377-1.116 2.943-1.915 4.48-2.712.832-.384 1.024.735 1.856 1.18-2.336.544-4.256 1.278-6.335 1.532zm7.07-1.723c-.32-.031-1.632-1.15-1.632-1.373a.215.215 0 01.03-.192c.129-.256 2.144-1.213 2.432-1.18 1.055.128.99 1.18 1.44 1.818.128.192-.031.35-.193.384-.7.192-1.404.384-2.077.543zm2.239-2.36c1.088.286 2.015.542 3.04.798-2.08 1.052-2.463.958-3.04-.799zm-1.6 3.35c-.446-.383-.415-.542.193-.7 1.758-.48 1.758-.51 2.526 1.115.608 1.309 1.248 2.617 1.856 3.925a274.34 274.34 0 00-4.574-4.34zm5.502 2.49v2.168c-.064 0-.095.03-.16.03-.862-1.787-1.727-3.604-2.623-5.391-.223-.48-.16-.638.385-.8 2.431-.7 2.431-.734 2.431 1.818 0 .738-.033 1.44-.033 2.174zm.128-7.5c0 2.266 0 2.266-2.174 1.69-.64-.159-1.279-.35-1.92-.51-.257-.064-.447-.192-.48-.445-.031-.256.192-.32.351-.415 1.184-.701 2.4-1.372 3.584-2.104.608-.384.672-.095.64.414v1.37zm-.498-3.22a397.114 397.114 0 00-6.269-3.67c-.385-.222-.51-.414-.256-.829 1.024-1.69 1.984-3.382 3.039-5.17 2.56 2.553 5.008 5.009 7.516 7.467.288.286.321.414-.064.637-.96.51-1.887 1.086-2.847 1.628a1.02 1.02 0 01-1.119-.064zm6.449 8.197c-1.728 1.818-3.487 3.605-5.214 5.423l-.288-.192c0-2.266 0-4.53-.03-6.828 0-.446.223-.48.575-.384 1.632.445 3.262.924 4.895 1.339.67.164.285.42.062.642zm.415-1.019c-1.568-.414-3.167-.86-4.733-1.275a.552.552 0 00.03-.222c1.312-.351 2.668-.766 4-1.053 1.024-.222 1.633.671 2.464 1.053a.59.59 0 01.065.256c-.067.412-1.41 1.336-1.826 1.241zm6.942 1.849c-1.887-.51-3.774-.988-5.663-1.5.672-1.437 1.055-1.565 2.336-.8l3.455 2.01c-.056.093-.097.19-.128.29zm.27-.732c-1.44-.86-2.848-1.723-4.447-2.648.275-.222.467-.32.575-.478.416-.574.737-.51 1.217 0 .703.798 1.504 1.5 2.238 2.265.224.22.575.382.416.86zm.561-.512a94.002 94.002 0 01-3.103-3.16c-.609-.701.257-.86.51-1.18.352-.543.512.03.64.256l1.823 3.16a.816.816 0 01.13.924zm1.664.862c-.064.031-.095.031-.16.064-1.024-1.753-2.035-3.54-3.07-5.328-.223-.384-.192-.573.288-.67.96-.223 1.92-.51 2.942-.766v6.7zm-2.431-6.67c.8-.765 1.663-1.594 2.43-2.36.098 2.107-.127 2.33-2.43 2.36zm2.174-3.284a1004.77 1004.77 0 01-3.52 3.797c-1.054-1.851-1.92-3.413-2.941-5.136 2.238.192 4.287.32 6.302.51.703.064.45.509.16.83zm.303-24.184c-.03 2.296-.03 4.562-.03 6.859.03.67-.13.988-.927.957-1.695-.094-3.392-.03-5.086-.03-.416 0-.639-.031-.51-.543.926-3.38 1.853-6.76 2.78-10.203 1.147.635 2.2 1.24 3.231 1.908.378.207.593.624.542 1.052zm.082-6.188c-.192 1.5-.03 3.031-.03 4.754-1.248-.701-2.29-1.339-3.358-1.915 0 0-.003 0-.003-.002-.22-.098-.318-.354-.22-.574.544-1.915 1.054-3.86 1.599-5.901 1.211.988 2.236 1.881 2.012 3.638zm-.192-2.33c-.532-.638-.927-1.15-1.376-1.628a.683.683 0 01-.129-.8c.16-.383.447-.191.673-.158 1.183.225 1.28.512.832 2.586zm-.21-2.934c-.352-.159-1.184.159-.96-.735.415-1.595.862-3.16 1.278-4.754h.146c0 1.659 0 3.287-.018 4.944 0 .289.128.832-.447.545zm14.285 17.77c-.03.031-.03.095-.064.129-1.471-.83-2.976-1.565-4.351-2.489-.704-.51.159-1.244.159-1.851a441.023 441.023 0 014.256 4.212zm-13.403 3.157c.447-.924 1.089-1.595 2.367-1.18 1.23 0 2.526.03 3.871 0 .511 0 .609.192.511.67-.192.894-.48 1.501-1.568 1.69-1.536.287-3.07.766-4.606 1.214-.544.159-.831.064-.736-.543.097-.606-.16-1.244.161-1.85zm-.064-16.718c1.312 1.275 2.495 2.394 3.712 3.574-1.055.607-2.08 1.18-3.104 1.754-.415.223-.608.192-.608-.32v-5.008zm3.55 4.245c.385-.223.48-.095.575.287.288 1.15.64 2.296.927 3.446a.64.64 0 01-.16.734c-.256.16-.415-.094-.607-.192-1.343-.734-2.688-1.5-4.128-2.33 1.219-.7 2.307-1.308 3.393-1.945zm3.276-1.818c1.12-.637 2.238-1.244 3.358-1.882.064-.03.128 0 .415 0h-.012a419.464 419.464 0 00-3.41 4.977c-.223.351-.351.351-.672.064-2.013-1.853-2.046-1.82.32-3.159zm-1.26 7.655c.446 1.5.831 2.998 1.216 4.499.16.51-.223.445-.51.445H49.35c1.278-1.818 2.4-3.446 3.455-5.105.414-.571.765-.348.924.161zm.736 10.177c-.03-.735.288-1.372.447-2.01.064-.286.32-.384.608-.414.385-.031.385.286.447.51.385 1.085.192 1.34-1.502 1.914zm-6.302-.19c.544-.987 2.239-.798 3.422-1.18.896-.286 1.792-.478 2.816-.734-.223.83-.416 1.5-.575 2.202a1.083 1.083 0 01-.608.734c-.737.384-1.44.8-2.175 1.214-.926.543-1.886 1.052-2.91 1.628l.03-3.863zm5.342 1.435c-.447 1.69-.862 3.19-1.278 4.69-.129.445-.416.192-.609.064-1.024-.574-2.015-1.18-3.198-1.882a387.605 387.605 0 015.085-2.872zm.45.256c.128-.51 1.791-1.788 2.238-1.754a.403.403 0 01.223.128c.48.543.416 1.915-.095 2.424-.896.894-1.792 1.787-2.688 2.648-.192.158-.351.414-.736.32.351-1.309.703-2.553 1.057-3.766zm2.602-3.127c-.03-.35-.48-.893.095-1.085 1.469-.446 2.934-.891 4.529-.958-1.407.766-2.783 1.562-4.177 2.328-.318.194-.416-.062-.447-.285zm.018-1.628c-.8.192-.575-.637-.703-1.021-.193-.543.32-.446.608-.446h5.15a.24.24 0 00.064.128c-1.694.446-3.391.924-5.119 1.34zm-1.183-2.711c-.385-1.467-.703-2.68-1.089-4.084 2.177 1.116 2.177 1.116 1.089 4.084zm.703-3.669a12.67 12.67 0 01-1.792-1.052.956.956 0 01-.19-1.406c.193-.287.386-.543.545-.83.287-.606.575-.478.926-.063.447.542 1.056.957 1.407 1.5-.159.607-.287 1.116-.446 1.69-.065.225-.224.289-.45.161zm1.089-2.617c-.095-.03-.193-.03-.224-.064-1.694-1.53-1.694-1.53-.415-3.382.703-.988 1.375-1.979 2.079-2.967.095.03.192.095.287.128-.575 2.074-1.119 4.18-1.727 6.285zm1.984-8.518c-2.336 1.309-4.48 2.52-6.685 3.764a526.405 526.405 0 01-1.599-5.999c2.78.735 5.404 1.47 8.284 2.235zm-8.638-1.53c.385 1.436.767 2.903 1.153 4.37a.67.67 0 01-.16.094 283.584 283.584 0 00-3.07-3.03c-.223-.257-.352-2.33-.159-2.584a.276.276 0 01.223-.128c.735-.159 1.82.543 2.013 1.277zm-2.323-3.16c.128-1.595.03-3.19.03-4.785h.18c.544 1.979 1.055 3.956 1.582 5.935.128.478-.031.542-.511.445-.927-.159-1.376-.51-1.281-1.595zm-.139 19.494v-2.489l.064-4.37c0-.543.129-.735.673-.415a57.846 57.846 0 003.358 1.915c.446.223.446.446.192.83a258.217 258.217 0 00-3.327 4.818c-.192.32-.446.51-.8.384-.352-.13-.16-.45-.16-.673zm-.033 15.187v-4.754c1.23.701 2.238 1.339 3.296 1.946.385.222.416.414.095.734a92.823 92.823 0 00-2.465 2.458.755.755 0 01-.703.287c-.382-.128-.223-.448-.223-.67zm3.614-1.628c-.575 2.967-.385 2.617-2.174 2.296.608-.86 1.376-1.467 2.174-2.296zm-3.327 12.602c-.064 0-.159-.031-.223-.031 0-1.629.03-3.288-.03-4.913-.032-.735.158-1.117.926-1.18a7.82 7.82 0 001.055-.257c-.609 2.202-1.15 4.307-1.728 6.38zm1.217-6.762c-1.694.415-1.407.479-1.44-1.086 0-1.5.257-1.945 1.248-1.85.51.03 1.247-.287 1.504.35.254.638-.737 2.425-1.312 2.586zm8.284-2.171a673.283 673.283 0 00-7.006 1.882c.193-.766.352-1.437.511-2.074.129-.51.544-.384.896-.351 1.856.128 3.679.256 5.535.415.033.033.033.097.064.128zm-5.47-1.022c-.511-.03-.737-.158-.575-.799.639-2.424.608-2.424 2.782-1.15l3.838 2.395c-2.11-.156-4.092-.318-6.045-.446zm6.943.29a968.657 968.657 0 00-6.43-3.797c1.44-1.437 2.816-2.84 4.287-4.243.67 2.584 1.373 5.2 2.143 8.04zm-1.953-9.51a.572.572 0 01-.095-.127c-.48-1.565-.51-1.565.96-2.36 1.12-.608 2.272-1.214 3.391-1.819l.128.095c-1.473 1.406-2.91 2.809-4.384 4.212zm5.152-6.251h-6.015c-.446 0-.703-.031-.51-.607.256-.799.446-1.595.639-2.394.095-.384.223-.51.608-.287 1.792 1.053 3.584 2.043 5.373 3.062a1.742 1.742 0 01-.095.226z"/><path d="M35.957 9.4c-.98-.03-1.836-.44-2.786-.664 1.648-1.167 2.438-.946 2.786.665zm16.621 12.018c.19.157.412.317.602.505 1.077 1.076 1.077 1.076.094 2.34-.348-.381-.317-.886-.475-1.297a11.763 11.763 0 01-.317-1.424.456.456 0 01.096-.124zM16.853 58c.03-.03.063-.094.094-.127l.063.064M5.064 16.769c-.031-.093-.031-.157-.064-.253.094 0 .157.03.254.03-.063.064-.114.16-.19.223z"/></svg>