<svg viewBox="0 0 512 510" fill="none" xmlns="http://www.w3.org/2000/svg"><path d="M37.515 217.537l-37.48 37.29 37.499 37.283 37.284-37.277-37.303-37.296zm218.372 219.396L146.913 327.978l-36.582 36.575 145.556 144.771 145.549-144.771-36.57-36.575-108.979 108.955zm0-364.199l108.979 108.949 36.57-36.57L255.887.348 110.331 145.113l36.582 36.57L255.887 72.734zM474.252 292.13l37.473-37.29-37.48-37.283-37.29 37.277 37.297 37.296zm-129.962.136v-12.778h-23.697v-2.057c0-14.546-12.209-26.394-27.246-26.394-15.044 0-27.253 11.848-27.253 26.394v2.057h-5.606v-9.929l32.575-50.022c2.765-4.117 4.677-7.311 5.814-9.584 1.067-2.342 1.635-4.684 1.635-6.951 0-2.84-1.067-5.321-3.264-7.524-2.274-2.127-5.038-3.264-8.378-3.264-2.127 0-3.901.43-5.391 1.206a12.658 12.658 0 00-4.04 3.339 36.016 36.016 0 00-3.339 4.609c-.069.214-.208.353-.285.567l-.492.783c-.853 1.345-1.773 2.98-2.91 4.754v.069l-24.62 39.525-5.044-8.163-.423-.706-17.24-28.03-1.635-2.626c-.706-1.067-1.344-2.127-1.913-3.049 2.696.139 5.107.423 7.304.853 5.607.991 9.653 2.765 12.065 5.246 3.693 3.908 5.536 9.014 5.536 15.258 0 4.615-.921 8.439-2.765 11.496l.07.069.353.498.782 1.275 23.913-38.741a34.714 34.714 0 00-6.174-7.164c-4.185-3.764-9.229-6.389-15.043-8.018-5.82-1.704-14.191-2.557-25.118-2.557h-36.829c-6.313 0-10.928 1.421-13.838 4.116-2.904 2.695-4.324 7.165-4.324 13.484v109.268c0 5.675 1.275 10.005 3.971 12.916 2.625 2.91 6.104 4.4 10.434 4.4 4.11 0 7.519-1.49 10.215-4.47 2.696-2.91 4.116-7.311 4.116-13.062v-40.085h26.255c1.559 0 3.048 0 4.538-.07l-13.477-21.57h-17.317v-38.249c0 .145.07.284.145.43.07.138.139.284.209.353 1.137 2.48 3.055 5.82 5.751 10.075l17.524 27.246.14.215 13.553 21.002.075.07.493.783v9.929H201.39v12.778h32.705v8.086H201.39v12.77h32.775c.284 4.332 1.489 7.595 3.548 9.861 2.418 2.626 5.606 3.978 9.512 3.978 3.902 0 7.02-1.352 9.507-4.048 2.128-2.265 3.334-5.529 3.687-9.791h5.674v13.769h21.932v-13.769h10.713v13.769h21.855v-13.769h23.697v-12.77h-23.697v-8.086h23.697zm-78.197 8.086h-5.605v-8.086h5.605v8.086zm32.646 0h-10.714v-8.086h10.714v8.086zm0-20.864h-10.714v-1.842c0-3.118 2.342-5.676 5.322-5.676 2.979 0 5.392 2.558 5.392 5.676v1.842z" fill="currentColor"/></svg>