<svg viewBox="0 0 23 26" xmlns="http://www.w3.org/2000/svg" fill="currentColor"><path d="M3.665 5.303l1.878-.994.221.442 6.85-3.978-.442-.331L11.62.11 11.399 0 .129 6.519v.22l3.205-1.767.331.331zm0 4.199l5.414-3.204.22.442 6.961-3.978-.552-.331-.552-.221-.221-.11L.129 10.606v.22L3.334 9.06l.331.442zm0 1.989l7.182-4.088.22.331 6.961-3.977-.552-.221-.553-.332-.22-.11L.128 12.595v.332l3.205-1.878.331.442zm0 1.988l8.95-5.082.22.331 6.961-3.867-.552-.331-.553-.332-.22-.11L.128 14.695v.22l3.205-1.767.331.331zm0 2.1L14.382 9.39l.221.442 6.96-3.977-.552-.332-.442-.22-.331-.222L.129 16.683v.332l3.205-1.878.331.442zm18.562-9.281l-.221-.221L.129 18.783v.22l3.205-1.767.331.442 10.717-6.298.221.442 8.066-4.53V6.52l-.442-.221zM1.566 20.329l1.768-1.104.22.441 10.828-6.187.221.442 8.066-4.64V7.844L1.234 20.108l.332.221zm12.816-4.75l.221.441 8.066-4.75V9.833L3.002 21.213l.332.11L5.1 20.22l.332.442 8.95-5.082zm-9.28 6.74l1.878-.995.22.442 7.182-4.199.221.442 8.066-4.64v-1.437l-17.9 10.276.332.11zm1.767.993l1.878-.994.221.442 5.414-3.094.221.442 8.066-4.64v-1.547L6.538 23.202l.331.11zm1.436.884l.332.221 1.878-1.105.221.442 3.646-2.099.221.442 8.066-4.64V16.02L8.305 24.196zm2.1 1.216l1.767-1.105.332.442 1.878-.995.221.442 8.066-4.64v-1.547l-12.485 7.292.22.11zm4.088-23.644l-.553-.332-.552-.22-.221-.222L.129 8.507v.332L3.334 6.96l.331.442 3.646-2.1.221.442 6.96-3.977z"/></svg>