<svg viewBox="0 0 14 10" xmlns="http://www.w3.org/2000/svg" fill="currentColor"><g fill="none" fillRule="evenodd"><path d="M7 17c6.629 0 12-5.371 12-12S13.629-7 7-7-5-1.629-5 5 .371 17 7 17z"/><path d="M3.512 2.695a.45.45 0 00-.352-.156H.336a.096.096 0 01-.063-.023.094.094 0 01-.023-.059V.574c0-.02.008-.035.023-.05A.089.089 0 01.336.5h2.988c.754 0 1.403.305 1.953.918L6 2.297 4.59 4 3.512 2.695zm5.226-1.293C9.278.801 9.934.5 10.695.5h2.98c.024 0 .044.008.055.02.012.011.02.03.02.054v1.883c0 .02-.008.04-.02.05-.011.02-.03.024-.054.024h-2.824a.462.462 0 00-.352.164L8.418 5.203l2.098 2.524a.43.43 0 00.336.148h2.824c.023 0 .043.008.054.027.012.02.02.035.02.063v1.887a.07.07 0 01-.02.05c-.011.02-.03.028-.054.028h-2.98c-.762 0-1.41-.309-1.954-.918L7.008 6.918l-1.73 2.094c-.551.61-1.204.918-1.962.918H.336c-.024 0-.043-.008-.055-.028a.108.108 0 01-.02-.062V7.957c0-.02.009-.035.02-.05.012-.016.031-.024.055-.024h2.832c.133 0 .25-.055.348-.16L5.562 5.25l3.176-3.848z" fill="currentColor" fillRule="nonzero"/></g></svg>