<svg viewBox="0 0 64 64" width="100%" height="100%" fill="none" xmlns="http://www.w3.org/2000/svg"><rect width="64" height="64" rx="8" fill="#F03738" fill-opacity=".1"/><g opacity=".7" clip-path="url(#a)" fill="#EB5757"><path d="M32.001 14.545c-9.593 0-17.454 7.862-17.454 17.455 0 9.593 7.861 17.455 17.454 17.455S49.456 41.593 49.456 32c0-9.593-7.862-17.455-17.455-17.455ZM42.88 42.878C39.958 45.8 36.095 47.41 32 47.41c-4.093 0-7.956-1.609-10.878-4.53-2.922-2.922-4.53-6.786-4.53-10.879s1.608-7.957 4.53-10.878c2.922-2.922 6.785-4.531 10.878-4.531 4.094 0 7.957 1.609 10.879 4.53 2.922 2.922 4.53 6.786 4.53 10.879s-1.608 7.957-4.53 10.878Z"/><path d="M41.436 22.568c-2.535-2.535-5.885-3.932-9.432-3.932-3.547 0-6.896 1.397-9.432 3.932-2.535 2.535-3.931 5.885-3.931 9.432 0 3.547 1.396 6.897 3.931 9.432 2.536 2.535 5.885 3.931 9.432 3.931 3.547 0 6.897-1.396 9.432-3.931s3.932-5.885 3.932-9.432c0-3.547-1.397-6.897-3.932-9.432Zm-5.34 10.455h-3.069v8.181h-3.62l-2.884-4.336 4.459-3.334v-.511h-3.069v-2.046h3.069v-.675l-3.518-4.684 4.663-3.109 2.639 2.639-1.432 1.431-1.453-1.452-1.472.982 2.618 3.498v1.37h3.068v2.046Z"/><path d="M30.512 39.159h.47v-3.068l-1.677 1.268 1.207 1.8Z"/></g><defs><clipPath id="a"><path fill="#fff" transform="translate(14.547 14.545)" d="M0 0h34.909v34.909H0z"/></clipPath></defs></svg>