<svg viewBox="0 0 64 64" width="100%" height="100%" fill="none" xmlns="http://www.w3.org/2000/svg"><rect width="64" height="64" rx="8" fill="#2083D0" fill-opacity=".1"/><g clip-path="url(#a)" fill="#2083D0"><path d="M32.001 14.546c-9.624 0-17.454 7.83-17.454 17.454 0 9.625 7.83 17.455 17.454 17.455 9.625 0 17.455-7.83 17.455-17.455 0-9.624-7.83-17.454-17.455-17.454Zm0 32.322c-8.196 0-14.867-6.669-14.867-14.868 0-8.198 6.67-14.867 14.867-14.867 8.197 0 14.868 6.669 14.868 14.867 0 8.2-6.67 14.868-14.868 14.868Z"/><path d="M29.445 27.825c0 .82.555 1.505 1.662 2.055v-3.786c-1.108.199-1.662.776-1.662 1.731Z"/><path d="M31.999 18.619c-7.377 0-13.382 6.003-13.382 13.382 0 7.378 6.005 13.381 13.382 13.381 7.378 0 13.382-6.003 13.382-13.381 0-7.38-6.005-13.382-13.382-13.382Zm4.467 20.239c-.845.807-2.05 1.3-3.619 1.475v2.594h-1.744v-2.52c-1.617-.01-3.122-.375-4.516-1.1v-3.31c.462.375 1.15.723 2.067 1.04.915.32 1.731.502 2.448.551V33.24c-1.864-.693-3.136-1.442-3.817-2.252-.68-.809-1.022-1.794-1.022-2.957 0-1.25.443-2.315 1.327-3.195.884-.88 2.055-1.392 3.513-1.535v-2.224h1.744v2.174c1.68.08 2.934.35 3.762.812v3.225c-1.116-.678-2.369-1.092-3.762-1.242v4.528c1.743.63 2.993 1.347 3.752 2.156.755.809 1.136 1.786 1.136 2.934-.002 1.32-.425 2.385-1.269 3.194Z"/><path d="M32.852 33.916v3.618c1.139-.173 1.71-.744 1.71-1.708-.002-.777-.572-1.415-1.71-1.91Z"/></g><defs><clipPath id="a"><path fill="#fff" transform="translate(14.547 14.546)" d="M0 0h34.909v34.909H0z"/></clipPath></defs></svg>