<svg viewBox="0 0 398 512" fill="none" xmlns="http://www.w3.org/2000/svg"><path d="M25.052 96.65c15.88-22.725 39.016-40.385 69.408-53.116 30.391-12.732 66.669-19.03 108.834-19.03 34.909 0 65.985 3.834 92.954 11.5l-.684-.274L315.825.137h27.379l13.69 23.683-16.838 29.57-.274-.137c11.773 6.298 23.546 13.69 34.909 22.452v62.015l-56.539 32.718c-13.005-11.773-26.558-20.945-40.659-27.379-20.672-9.309-44.355-13.964-71.05-13.964-19.44 0-34.636 3.149-45.587 9.583-10.952 6.297-16.291 14.785-16.291 25.189 0 8.214 5.613 14.512 16.975 19.029 9.172 3.696 23.273 7.53 42.302 11.5l-54.623 94.596c-6.571 11.5-20.261 16.976-32.992 13.28-10.541-3.149-20.261-6.298-29.16-9.857-24.778-9.583-45.176-23.684-61.604-42.575C9.035 230.948.958 206.032.958 174.682c.274-29.296 8.214-55.444 24.094-78.032zm346.901 325.818c-17.249 21.357-40.522 37.374-70.092 48.326-29.433 10.951-62.836 16.29-99.936 16.29-41.754 0-76.937-3.559-105.686-10.815l-20.26 35.594h-27.38l-13.69-23.683 16.154-28.475c-11.773-5.75-23.273-12.458-34.498-19.987v-62.974l57.36-33.129c12.458 10.678 25.737 18.892 39.974 24.779 22.452 9.309 48.873 13.963 79.265 13.963 41.206 0 61.878-9.993 61.878-29.981 0-8.624-6.024-15.469-18.071-20.397-10.678-4.518-27.38-8.899-49.831-13.417l55.033-95.281c6.571-11.362 20.124-16.838 32.856-13.279 18.207 5.202 34.088 10.952 47.64 17.523 26.011 12.458 45.177 28.201 57.087 47.23 12.047 19.029 18.071 42.575 18.071 70.776 0 29.981-8.625 55.581-25.874 76.937z" fill="currentColor"/></svg>