<svg fill="none" xmlns="http://www.w3.org/2000/svg" viewBox="0 0 215 288">
  <path d="M57.336 4.31h27.972v72.584l84.978-30.805v22.307L85.308 99.201v12.038l46.03-16.287 38.948-14.517v21.244c0 .945-.236 1.417-.708 1.417l-81.792 29.388c-.944.472-1.77.944-2.479 1.416v120.032c21.481-2.596 40.483-10.74 57.007-24.43 18.176-14.872 30.332-33.402 36.47-55.59 2.596-10.151 3.895-20.301 3.895-30.452h28.326c0 22.897-5.547 44.496-16.642 64.796-7.79 15.58-18.412 29.035-31.867 40.365-12.51 11.095-26.556 19.592-42.135 25.494-20.3 7.79-41.309 10.504-63.026 8.144V143.815l-4.603 1.77-48.508 17.35V140.63l53.111-19.12v-12.393c-2.596 1.18-6.078 2.597-10.445 4.249-4.367 1.652-7.14 2.596-8.32 2.832l-27.974 10.268-2.301.708c-1.535.472-2.892.826-4.072 1.062V105.93l53.111-18.766V4.31h.002Z" fill="currentColor"/>
</svg>