<svg viewBox="0 0 12 13" xmlns="http://www.w3.org/2000/svg" xmlns:xlink="http://www.w3.org/1999/xlink" fill="currentColor"><defs><path id="a" d="M0 0h4.625v5H0z"/><path id="c" d="M.25.25H7v3.375H.25z"/><path id="e" d="M.375.813H4.5V11H.375z"/></defs><g fill="none" fillRule="evenodd"><path d="M6 16c4.973 0 9-4.027 9-9s-4.027-9-9-9-9 4.027-9 9 4.027 9 9 9z"/><path d="M3.871 1.672c-.16-.024-.168-.024-.094-.043.145-.024.485.008.72.058.538.125 1.034.442 1.57 1.008l.132.164.203-.035c.84-.129 1.703-.023 2.414.297.196.09.508.262.551.313a.986.986 0 01.051.203c.05.343.023.605-.086.804-.059.102-.059.137-.023.227.03.074.117.125.21.125.176 0 .368-.281.461-.664l.036-.156.066.074c.39.418.684.988.742 1.402l.02.102-.067-.098a1.217 1.217 0 00-.367-.367c-.258-.164-.527-.223-1.254-.254-.648-.031-1.02-.09-1.383-.203-.62-.2-.945-.461-1.675-1.395-.328-.414-.532-.644-.735-.832-.46-.418-.91-.64-1.492-.73z" fill="currentColor" fillRule="nonzero"/><path d="M9.52 2.605c.015-.277.058-.464.132-.628.032-.067.059-.125.07-.125.008 0-.011.05-.038.105-.055.164-.067.387-.024.648.05.329.078.375.438.73.172.161.363.376.441.466l.125.164-.125-.113a4.658 4.658 0 00-.605-.47c-.051-.023-.063-.023-.094.009-.035.03-.035.074-.043.285-.008.328-.05.535-.16.746-.059.113-.07.09-.02-.043.043-.094.043-.137.043-.445 0-.641-.074-.79-.539-1.051a6.994 6.994 0 00-.422-.215 2.993 2.993 0 01-.21-.094c.019-.02.464.114.644.18.27.098.308.113.344.098.015-.008.035-.067.043-.247zM4.184 3.688c-.32-.43-.524-1.083-.48-1.575l.019-.156.074.02c.137.023.371.113.48.168.301.183.438.421.57 1.015.048.18.094.375.122.445.031.114.176.375.293.54.086.12.027.171-.157.156-.289-.024-.675-.281-.921-.614z" fill="currentColor" fillRule="nonzero"/><g transform="translate(7 4)" fill="currentColor"><mask id="b"><use xlink:href="#a"/></mask><path d="M2.133 2.871C.62 2.29.093 1.781.093.921c0-.12.005-.23.005-.23.007 0 .07.04.129.09.3.239.648.34 1.59.465.558.086.867.14 1.156.238.922.297 1.484.895 1.62 1.707.04.235.012.68-.054.907-.05.18-.2.515-.242.53-.008 0-.027-.038-.027-.097a1.163 1.163 0 00-.446-.824c-.285-.246-.699-.445-1.691-.836z" fillRule="nonzero" mask="url(#b)"/></g><path d="M8.066 7.117A2.645 2.645 0 008 6.805l-.04-.106.067.07c.102.11.184.25.243.426.05.14.058.184.058.41 0 .223-.008.27-.05.395a1.201 1.201 0 01-.317.48c-.27.274-.625.426-1.14.485-.083.008-.344.031-.571.043-.574.031-.953.09-1.29.203-.05.016-.093.023-.093.023-.02-.011.219-.144.403-.238.27-.121.539-.195 1.14-.285a8.08 8.08 0 00.672-.129c.734-.215 1.113-.781.984-1.465zm.696 1.176c-.203-.418-.246-.82-.137-1.184.008-.043.031-.074.043-.074a.46.46 0 01.102.055c.093.058.277.164.765.422.617.316.961.57 1.203.855.211.254.34.535.399.887.035.195.015.672-.032.867-.171.621-.55 1.113-1.097 1.399a1.452 1.452 0 01-.16.074.543.543 0 01.066-.156c.184-.368.203-.739.066-1.137-.085-.246-.257-.551-.605-1.055-.414-.582-.512-.738-.613-.953z" fill="currentColor" fillRule="nonzero"/><g transform="translate(2 9)" fill="currentColor"><mask id="d"><use xlink:href="#c"/></mask><path d="M1.113 1.531C1.672 1.071 2.367.75 3 .652c.27-.039.727-.023.98.035.403.098.766.329.954.59.183.258.257.493.343.989.032.195.067.402.078.441.055.262.184.477.329.574.234.164.636.18 1.043.024a.933.933 0 01.136-.04c.016.016-.187.145-.332.215a1.242 1.242 0 01-.547.125c-.363 0-.675-.175-.925-.546a3.823 3.823 0 01-.254-.485c-.27-.586-.403-.765-.707-.96-.27-.173-.625-.208-.887-.079-.344.164-.438.594-.191.863a.81.81 0 00.43.22c.277.03.523-.169.523-.442 0-.18-.07-.281-.246-.36-.247-.109-.504.016-.504.239 0 .09.039.156.14.195.059.043.07.043.02.035-.223-.043-.278-.305-.094-.476.219-.204.656-.114.809.164.066.113.074.351.015.5-.125.316-.488.48-.86.39-.253-.062-.35-.133-.655-.433-.532-.524-.735-.63-1.493-.746L.961 1.66l.152-.129z" fillRule="nonzero" mask="url(#d)"/></g><g fill="currentColor"><mask id="f"><use xlink:href="#e"/></mask><path d="M.637 1.121c1.758 2.074 2.976 2.926 3.11 3.106.108.144.07.285-.118.382a1.05 1.05 0 01-.43.121c-.125 0-.172-.046-.172-.046-.074-.067-.105-.047-.476-.68a214.27 214.27 0 00-.953-1.414c-.024-.024-.024-.024.902 1.57.145.336.027.457.027.508 0 .102-.027.148-.156.277-.2.223-.293.465-.36.98-.077.587-.288.993-.859 1.688-.347.414-.398.485-.48.649-.113.207-.145.328-.152.59-.02.277.007.457.097.722.078.227.16.383.363.684.18.262.282.46.282.543 0 .054.008.054.285 0 .656-.14 1.187-.395 1.48-.703.188-.192.23-.297.23-.559 0-.172-.007-.203-.05-.305-.074-.164-.219-.293-.531-.496-.414-.27-.582-.492-.633-.785-.043-.246.008-.418.234-.879.23-.476.29-.68.328-1.152.028-.313.063-.438.157-.535.093-.098.183-.14.422-.164.382-.047.632-.145.832-.328.175-.153.254-.301.261-.528l.008-.176-.101-.113C3.828 3.676.402.812.375.812c-.008 0 .11.141.262.31zm.816 8.04c.086-.138.035-.31-.09-.4-.129-.081-.324-.042-.324.067 0 .031.02.055.059.074.07.032.078.07.02.157-.06.078-.052.152.015.203.101.074.246.031.32-.102z" mask="url(#f)"/></g><path d="M4.527 5.316c-.183.047-.359.235-.41.434-.035.113-.02.328.035.39.082.106.157.133.368.133.414 0 .777-.171.82-.386.031-.172-.13-.414-.34-.524-.117-.066-.363-.078-.473-.047zm.485.36c.066-.09.031-.18-.078-.246-.204-.114-.512-.02-.512.172 0 .09.156.199.308.199.102 0 .239-.063.282-.125z" fill="currentColor"/></g></svg>