<svg fill="none" xmlns="http://www.w3.org/2000/svg" viewBox="0 0 70 117">
  <path d="M31.682 116.636V.273h7.454v116.363h-7.454ZM55 36.364c-.485-4.303-2.485-7.637-6-10-3.515-2.394-7.94-3.591-13.273-3.591-3.818 0-7.12.606-9.909 1.818-2.788 1.182-4.954 2.818-6.5 4.909-1.515 2.06-2.273 4.41-2.273 7.045 0 2.213.516 4.122 1.546 5.728 1.06 1.606 2.44 2.954 4.136 4.045A31.254 31.254 0 0 0 28.273 49a62.576 62.576 0 0 0 5.682 1.727l9.09 2.364c2.97.727 6.016 1.712 9.137 2.954a36.623 36.623 0 0 1 8.682 4.91c2.666 2.03 4.818 4.545 6.454 7.545 1.667 3 2.5 6.59 2.5 10.773 0 5.273-1.364 9.954-4.09 14.045-2.698 4.091-6.622 7.318-11.773 9.682-5.122 2.364-11.319 3.545-18.591 3.545-6.97 0-13-1.106-18.091-3.318-5.091-2.212-9.076-5.348-11.955-9.409-2.879-4.09-4.47-8.94-4.773-14.545h14.091c.273 3.363 1.364 6.166 3.273 8.409 1.94 2.212 4.41 3.864 7.41 4.954 3.03 1.061 6.348 1.591 9.954 1.591 3.97 0 7.5-.62 10.59-1.863 3.122-1.273 5.576-3.03 7.364-5.273 1.788-2.273 2.682-4.924 2.682-7.955 0-2.757-.788-5.015-2.364-6.772C52 70.606 49.894 69.15 47.227 68c-2.636-1.151-5.62-2.167-8.954-3.046l-11-3C19.818 59.925 13.909 56.94 9.545 53c-4.333-3.94-6.5-9.151-6.5-15.636C3.045 32 4.5 27.318 7.41 23.318c2.91-4 6.849-7.106 11.818-9.318 4.97-2.242 10.576-3.364 16.818-3.364 6.303 0 11.864 1.106 16.682 3.319 4.849 2.212 8.667 5.257 11.455 9.136 2.788 3.848 4.242 8.273 4.364 13.273H55Z" fill="currentColor"/>
</svg>