<svg viewBox="0 0 24 24" xmlns="http://www.w3.org/2000/svg" fill="currentColor"><g fillRule="evenodd"><path d="M19.57 5.037l-.66.659a9.324 9.324 0 010 12.588l.66.659c3.63-3.93 3.63-9.985 0-13.926v.02zm-13.86.06a9.322 9.322 0 0112.59 0l.66-.658a10.256 10.256 0 00-13.92 0l.67.658zm-.62 13.197a9.311 9.311 0 010-12.578l-.66-.669a10.285 10.285 0 000 13.926l.66-.679zm13.2.609a9.322 9.322 0 01-12.59 0l-.66.658a10.256 10.256 0 0013.92 0l-.67-.658zM14 10.324c0 1.317-2.06 1.157-2.71 1.157V9.157c.65 0 2.71-.21 2.71 1.167zm.53 3.601c0 1.437-2.47 1.277-3.26 1.277v-2.554c.8 0 3.26-.23 3.26 1.277zm1.63-4.13c-.13-1.376-1.32-1.835-2.82-1.975V5.925h-1.16v1.856c-.31 0-.62 0-.93.01V5.925H10.1V7.83H7.75v1.247s.86-.02.84 0a.6.6 0 01.66.509v5.217a.415.415 0 01-.44.389c.02.01-.84 0-.84 0l-.23 1.386h2.34v1.936h1.16v-1.905h.93v1.895h1.16v-1.916c1.96-.12 3.33-.598 3.5-2.433.14-1.477-.56-2.135-1.67-2.404.68-.34 1.1-.948 1-1.955z"/><path d="M12 .938C5.89.938.95 5.895.95 12c0 6.105 4.96 11.052 11.06 11.052 6.1 0 11.05-4.947 11.05-11.052C23.05 5.895 18.1.948 12 .938zM12 24C5.37 24 0 18.623 0 12S5.37 0 12 0s12 5.367 12 12c-.01 6.623-5.38 11.99-12 12z"/></g></svg>