<svg viewBox="0 0 510 353" fill="none" xmlns="http://www.w3.org/2000/svg"><path d="M202.857 161.684l-40.017-.134L39.96 38.265s36.783 0 40.152.135c7.949 8.084 68.176 68.446 122.745 123.284zm91.756 92.026l-19.941 19.941-78.417-78.687 40.017.135c33.145 33.28 58.341 58.611 58.341 58.611zm58.88-175.563l58.475 58.611-59.284 58.745v-.269l-49.314-49.449-24.791-24.926-3.773-3.773 38.67-39.208 40.421.135" fill="currentColor"/><path d="M411.968 136.758l-19.671 19.672-78.282-78.552 39.882.135-.405.134 58.476 58.611zM157.046 273.516l-78.551 78.282-39.074-.135 98.088-97.684 19.537 19.537zm116.682 78.551s33.011 0 39.343.135L431.37 234.307l-39.208.405-117.76 117.355h-.674zm-38.669-156.833l58.476-59.419-18.729-18.729-78.551 78.013 38.804.135zM.313 312.403l98.118-97.776 39.092 39.228-98.118 97.776L.313 312.403z" fill="currentColor"/><path d="M352.954 195.369l39.208 39.477-117.76 117.222L.617 77.339 39.96 38.265l234.71 235.386 78.013-78.148" fill="currentColor"/><path d="M196.39 195.099l98.088-97.55-19.402-19.536-39.343-.135-86.906 86.232" fill="currentColor"/><path d="M294.478 97.55l-19.672 19.536-39.073-39.208v-.135l39.343.27 19.402 19.536zm136.623 59.014l-39.208 39.074h.673l-40.286-.135h.404l39.343-39.074" fill="currentColor"/><path d="M431.37 234.307l-38.265-38.669-40.421-.404 39.478 39.612 39.208-.539zm78.333-77.851l-39.208 39.074h.673-40.286.404l39.209-39.209 39.208.135zm-39.074-.135l-39.208-39.208h-.404l40.286.134h-.674l39.074 39.209" fill="currentColor"/><path d="M392.26 156.188l39.228-39.091 39.091 39.228-39.228 39.091-39.091-39.228zm.209-116.575L353.26 78.686h.674l-40.287-.134h.405l39.343-39.074 39.074.135zm-39.074-.135L314.321.27h-.539 40.421-.808l39.208 39.343" fill="currentColor"/><path d="M275.001 39.38L314.23.29l39.091 39.228-39.228 39.091-39.092-39.228zm195.889.368L431.682 78.82h.674l-40.287-.135h.405l39.208-39.073 39.208.135zm-39.073-.135L392.608.404h-.404 40.286-.673l39.208 39.343" fill="currentColor"/><path d="M353.378 39.544L392.606.453l39.091 39.228-39.228 39.091-39.091-39.228z" fill="currentColor"/></svg>