<svg viewBox="0 0 419 659" xmlns="http://www.w3.org/2000/svg" fill="currentColor"><path d="M188.4 540.8v-416h45.3v416z"/><path d="M419 263.4l-139.9 37.1-31.2-145.2 41.6-9.4 16.4 68.8s37.8-62-12.6-126.2c-29.7-33-43.8-34.4-77.1-39.6-29.3-4.2-97.4 5.7-117.7 85.2-8.6 51.2 1.1 89.1 67.1 138.7l-3.7 55.2s-73.7-51.9-92.7-88.3C54.5 210.9 29.3 154 74.8 74.8 99.3 35.2 147.6-2.8 232.7 1.2 275.5 3 380 55.3 363.8 177.5c-2.8 22.9-14.7 53.4-14.7 53.4l57.4-12.8 12.5 45.3zm-79.9 325.5c-25.6 38.9-74.9 75.6-159.8 69.4-42.8-2.9-145.8-58-126.4-179.7 3.4-22.8 16.1-52.9 16.1-52.9l-57.7 11.2L0 391.4 140.9 358l27.4 146-41.9 8.3-14.6-69.3s-39.4 60.9 9.2 126.5c28.8 33.8 42.8 35.5 76.1 41.6 29.1 5 97.5-3.2 119.9-82.1 9.9-50.9 1.2-89.1-63.4-140.5l5.2-55.1s72.3 53.8 90.3 90.7c13.8 29.3 37.5 86.9-10 164.8z"/></svg>